<?xml version="1.0" encoding="utf-8"?>
<!-- Generator: Adobe Illustrator 18.0.0, SVG Export Plug-In . SVG Version: 6.00 Build 0)  -->
<!DOCTYPE svg PUBLIC "-//W3C//DTD SVG 1.1//EN" "http://www.w3.org/Graphics/SVG/1.1/DTD/svg11.dtd">
<svg version="1.1" id="Layer_1" xmlns="http://www.w3.org/2000/svg" xmlns:xlink="http://www.w3.org/1999/xlink" x="0px" y="0px"
	 viewBox="0 0 960 560" enable-background="new 0 0 960 560" xml:space="preserve">
<g id="HATCH_40_">
	<g id="XMLID_1_">
		<g>
			<path fill="#FF9E3D" d="M589.9,149.1c77.7,3.5,137.8,69.4,134.3,147l-0.6,13.3c-3.4,75.2-65.4,134.4-140.6,134.4H336.1
				c-22,0-43.2-7.9-59.9-22.2l-38.9-33.5c-16.2-14-18.1-38.4-4.1-54.7l2.7-3.1c14-16.2,38.4-18.1,54.7-4.1l42.1,36.2
				c4.1,3.5,9.3,5.4,14.6,5.4h18.9c3.4,0,6.1-2.7,6.1-6.1c0-0.9-0.2-1.7-0.5-2.5L361,335.5c-0.4-0.9-1.5-1.4-2.5-1.1l-17.3,5.7
				c-18.8,6.2-39.3-2.8-47.5-20.9l-7.5-16.6c-0.4-1-1.5-1.4-2.5-1.1l-28.8,9.5c-7.3,2.4-15.2,2.6-22.6,0.5l-13.7-3.8
				c-3.8-1.1-7.4-2.5-10.9-4.3c-29.1-14.8-40.7-50.5-25.9-79.6l15-29.4c1.8-3.5,3.9-6.8,6.3-9.9c20.3-25.6,57.5-29.9,83.1-9.7
				l125.2,99.1c12.5,9.9,22.4,22.6,29,37.1l16.9,37.2c5,10.9,15.9,18,27.9,18H519c12,0,21.9-9.4,22.4-21.4l0.2-4.1
				c0.1-1.1-0.8-2.1-1.9-2.1l-22-1c-32.6-1.5-57.9-29.1-56.4-61.8l0.1-1.5c1.3-28.1,25.1-49.9,53.3-48.6l8.1,0.4
				c55.2,2.5,97.8,49.3,95.3,104.4l-0.8,18.1c0,0.7,0.5,1.2,1.2,1.3c0.7,0,1.3-0.5,1.3-1.2l3.7-81.7c1-21.4-15.6-39.5-37-40.5
				l-63.6-2.9l-19.8-0.9c-12.5-0.6-24.9,1.1-36.8,5L447,234c-16.2,5.3-33.9,3.3-48.5-5.4l-93-55.3L269.7,155
				c-23.1-11.8-32.3-40-20.5-63.1c11.8-23.1,40-32.3,63.1-20.5l95.7,48.8c29.5,15,61.9,23.6,95,25.1L589.9,149.1z M687.5,294.5
				c2.6-57.4-41.8-106.1-99.2-108.7l-86.9-3.9c-38.3-1.7-75.8-11.6-110-29.1l-95.7-48.8c-5-2.6-11.2-0.6-13.7,4.5
				c-2.6,5-0.6,11.2,4.5,13.7l36.9,18.8l94.1,56c5.5,3.3,12.3,4.1,18.4,2.1l19.2-6.2c16.1-5.2,32.9-7.5,49.8-6.7l83.4,3.8
				c41.7,1.9,73.9,37.2,72,78.8l-3.7,81.7c-1,20.9-18.7,37.1-39.6,36.2c-20.9-0.9-37.1-18.7-36.2-39.6l0-0.3l0.8-17.8
				c1.6-34.9-25.4-64.5-60.3-66l-8.2-0.4c-7.9-0.4-14.6,5.7-14.9,13.6l-0.1,1.5c-0.6,12.4,9,22.9,21.4,23.4l22,1
				c21.4,1,37.9,19.1,37,40.5l-0.2,4.1c-1.4,31.6-27.5,56.5-59.1,56.5h-33.7c-26.4,0-50.4-15.4-61.3-39.5L407,326.4
				c-4.2-9.2-10.5-17.2-18.3-23.4l-125.2-99.1c-9.7-7.7-23.8-6.1-31.5,3.7c-0.9,1.2-1.7,2.4-2.4,3.7l-15,29.4
				c-5.6,11-1.2,24.6,9.8,30.2c1.3,0.7,2.7,1.2,4.2,1.6l13.7,3.8c0.4,0.1,0.8,0.1,1.2,0l28.8-9.5c18.8-6.2,39.3,2.8,47.5,20.9
				l7.5,16.6c0.4,1,1.5,1.4,2.5,1.1l17.3-5.7c18.8-6.2,39.3,2.8,47.4,20.8l10.8,23.8c2.5,5.6,3.8,11.6,3.8,17.7
				c0,23.7-19.2,42.8-42.8,42.8h-18.9c-14.2,0-27.9-5.1-38.6-14.3l-42.1-36.2c-0.9-0.7-2.1-0.6-2.9,0.2l-2.7,3.1
				c-0.7,0.9-0.6,2.1,0.2,2.9l38.9,33.4c10,8.6,22.8,13.3,35.9,13.3h30.1l216.7,0c55.6,0,101.4-43.8,104-99.3L687.5,294.5z"/>
		</g>
		<g>
		</g>
	</g>
</g>
<g id="HATCH_41_">
	<path fill-rule="evenodd" clip-rule="evenodd" fill="#FF9E3D" d="M294.1,433.7c-6.4-3.3-12.4-7.3-17.9-12l10.9,16.3
		c7.5,11.2,20.1,18,33.6,18.1l41.8,0l0-8.2l-41.5,0C310.3,448,300.2,442.6,294.1,433.7L294.1,433.7z"/>
</g>
<g id="HATCH_42_">
	<path fill-rule="evenodd" clip-rule="evenodd" fill="#FF9E3D" d="M476.8,448l0,8.2l90.5,0c8.4,0,16.7-1.6,24.4-4.7l43.1-17.4
		c-14.7,5.8-30.3,9.1-46.1,9.8c-6.8,2.6-14.1,4.1-21.4,4.2L476.8,448L476.8,448z"/>
</g>
<g id="LWPOLYLINE_79_">
	
		<path fill="none" stroke="#000000" stroke-width="0.8093" stroke-linecap="round" stroke-linejoin="round" stroke-miterlimit="10" d="
		M294.1,433.7c13,6.7,27.4,10.2,42,10.2"/>
</g>
<g id="LWPOLYLINE_80_">
	
		<line fill="none" stroke="#000000" stroke-width="0.8093" stroke-linecap="round" stroke-linejoin="round" stroke-miterlimit="10" x1="336.1" y1="443.9" x2="582.9" y2="443.9"/>
</g>
<g id="LWPOLYLINE_82_">
	
		<path fill="none" stroke="#000000" stroke-width="0.8093" stroke-linecap="round" stroke-linejoin="round" stroke-miterlimit="10" d="
		M276.3,421.7l10.9,16.3c7.6,11.3,20.3,18.1,33.9,18.1l41.5,0"/>
</g>
<g id="LWPOLYLINE_83_">
	
		<path fill="none" stroke="#000000" stroke-width="0.8093" stroke-linecap="round" stroke-linejoin="round" stroke-miterlimit="10" d="
		M294.1,433.7c6.1,8.9,16.2,14.3,27,14.3l41.5,0"/>
</g>
<g id="LWPOLYLINE_84_">
	
		<path fill="none" stroke="#000000" stroke-width="0.8093" stroke-linecap="round" stroke-linejoin="round" stroke-miterlimit="10" d="
		M636.4,433.3l-44.6,18c-7.8,3.1-16,4.7-24.4,4.7l-90.5,0"/>
</g>
<g id="LWPOLYLINE_85_">
	
		<path fill="none" stroke="#000000" stroke-width="0.8093" stroke-linecap="round" stroke-linejoin="round" stroke-miterlimit="10" d="
		M588.8,443.8L588.8,443.8c-6.8,2.8-14.1,4.2-21.4,4.2l-90.5,0"/>
</g>
<g id="LWPOLYLINE_88_">
	
		<line fill="none" stroke="#000000" stroke-width="0.8093" stroke-linecap="round" stroke-linejoin="round" stroke-miterlimit="10" x1="311.9" y1="112.4" x2="328.6" y2="79.6"/>
</g>
<g id="LWPOLYLINE_89_">
	
		<line fill="none" stroke="#000000" stroke-width="0.8093" stroke-linecap="round" stroke-linejoin="round" stroke-miterlimit="10" x1="321.9" y1="117.4" x2="338.5" y2="84.7"/>
</g>
<g id="LWPOLYLINE_90_">
	
		<line fill="none" stroke="#000000" stroke-width="0.8093" stroke-linecap="round" stroke-linejoin="round" stroke-miterlimit="10" x1="316.8" y1="114.8" x2="333.4" y2="82.1"/>
</g>
<g id="LWPOLYLINE_91_">
	
		<line fill="none" stroke="#000000" stroke-width="0.8093" stroke-linecap="round" stroke-linejoin="round" stroke-miterlimit="10" x1="330.2" y1="121.7" x2="346.8" y2="88.9"/>
</g>
<g id="LWPOLYLINE_92_">
	
		<line fill="none" stroke="#000000" stroke-width="0.8093" stroke-linecap="round" stroke-linejoin="round" stroke-miterlimit="10" x1="340.1" y1="126.7" x2="356.8" y2="94"/>
</g>
<g id="LWPOLYLINE_93_">
	
		<line fill="none" stroke="#000000" stroke-width="0.8093" stroke-linecap="round" stroke-linejoin="round" stroke-miterlimit="10" x1="350.1" y1="131.8" x2="366.8" y2="99.1"/>
</g>
<g id="LWPOLYLINE_94_">
	
		<line fill="none" stroke="#000000" stroke-width="0.8093" stroke-linecap="round" stroke-linejoin="round" stroke-miterlimit="10" x1="367.1" y1="140.5" x2="383.8" y2="107.8"/>
</g>
<g id="LWPOLYLINE_95_">
	
		<line fill="none" stroke="#000000" stroke-width="0.8093" stroke-linecap="round" stroke-linejoin="round" stroke-miterlimit="10" x1="377.1" y1="145.6" x2="393.8" y2="112.9"/>
</g>
<g id="LWPOLYLINE_96_">
	
		<line fill="none" stroke="#000000" stroke-width="0.8093" stroke-linecap="round" stroke-linejoin="round" stroke-miterlimit="10" x1="372" y1="143" x2="388.7" y2="110.3"/>
</g>
<g id="LWPOLYLINE_97_">
	
		<line fill="none" stroke="#000000" stroke-width="0.8093" stroke-linecap="round" stroke-linejoin="round" stroke-miterlimit="10" x1="385.4" y1="149.8" x2="402.1" y2="117.1"/>
</g>
<g id="LWPOLYLINE_98_">
	
		<line fill="none" stroke="#000000" stroke-width="0.8093" stroke-linecap="round" stroke-linejoin="round" stroke-miterlimit="10" x1="395.4" y1="154.9" x2="412" y2="122.2"/>
</g>
<g id="LWPOLYLINE_99_">
	
		<line fill="none" stroke="#000000" stroke-width="0.8093" stroke-linecap="round" stroke-linejoin="round" stroke-miterlimit="10" x1="405.6" y1="159.6" x2="422.3" y2="126.8"/>
</g>
<g id="LWPOLYLINE_100_">
	
		<line fill="none" stroke="#000000" stroke-width="0.8093" stroke-linecap="round" stroke-linejoin="round" stroke-miterlimit="10" x1="294.6" y1="167.7" x2="311.3" y2="134.9"/>
</g>
<g id="LWPOLYLINE_101_">
	
		<line fill="none" stroke="#000000" stroke-width="0.8093" stroke-linecap="round" stroke-linejoin="round" stroke-miterlimit="10" x1="304.6" y1="172.7" x2="321.2" y2="140"/>
</g>
<g id="LWPOLYLINE_102_">
	
		<line fill="none" stroke="#000000" stroke-width="0.8093" stroke-linecap="round" stroke-linejoin="round" stroke-miterlimit="10" x1="299.5" y1="170.2" x2="316.1" y2="137.4"/>
</g>
<g id="LWPOLYLINE_103_">
	
		<path fill="none" stroke="#000000" stroke-width="0.8093" stroke-linecap="round" stroke-linejoin="round" stroke-miterlimit="10" d="
		M634.8,434c51.5-20.4,86.2-69.1,88.7-124.5l0.6-13.3c3.5-77.7-56.6-143.5-134.2-147l-86.9-3.9c-33.1-1.5-65.5-10.1-95-25.1
		l-95.7-48.8c-23.1-11.8-51.3-2.6-63.1,20.5c-11.8,23.1-2.6,51.3,20.5,63.1l35.8,18.2l93,55.3c14.6,8.7,32.3,10.7,48.5,5.4l19.2-6.2
		c11.9-3.8,24.3-5.5,36.8-5l83.4,3.8c21.4,1,37.9,19.1,37,40.5l-3.7,81.7c0,0.7-0.6,1.2-1.3,1.2c-0.7,0-1.2-0.6-1.2-1.3l0.8-18.1
		c2.5-55.2-40.2-101.9-95.3-104.4l-8.2-0.4c-28.1-1.3-52,20.5-53.3,48.6l-0.1,1.5c-1.5,32.6,23.8,60.3,56.4,61.8l22,1
		c1.1,0.1,2,1,1.9,2.1l-0.2,4.1c-0.5,12-10.4,21.4-22.4,21.4l-33.7,0c-12,0-22.9-7-27.9-18l-16.9-37.2c-6.6-14.5-16.5-27.2-29-37.1
		L286.3,175c-25.6-20.3-62.8-16-83.1,9.7c-2.4,3.1-4.6,6.4-6.3,9.9l-15,29.4c-14.8,29.1-3.3,64.7,25.9,79.6
		c3.5,1.8,7.2,3.2,10.9,4.3l13.7,3.8c7.4,2.1,15.3,1.9,22.6-0.5l28.8-9.5c1-0.3,2.1,0.1,2.5,1.1l7.5,16.6
		c8.1,18.1,28.6,27.1,47.5,20.9l17.3-5.7c1-0.3,2.1,0.1,2.5,1.1l10.8,23.8c0.4,0.8,0.5,1.7,0.5,2.5c0,3.4-2.7,6.1-6.1,6.1l-18.9,0
		c-5.4,0-10.6-1.9-14.6-5.4l-42.1-36.2c-16.2-14-40.7-12.1-54.7,4.1l-2.7,3.1c-14,16.2-12.1,40.7,4.1,54.7l38.9,33.4"/>
</g>
<g id="LWPOLYLINE_104_">
	
		<path fill="none" stroke="#000000" stroke-width="0.8093" stroke-linecap="round" stroke-linejoin="round" stroke-miterlimit="10" d="
		M266.7,354.2c-0.9-0.7-2.1-0.6-2.9,0.2l-2.7,3.1c-0.7,0.9-0.6,2.1,0.2,2.9l38.9,33.4c10,8.6,22.7,13.3,35.9,13.3l246.8,0
		c55.6,0,101.4-43.8,103.9-99.3l0.6-13.3c2.6-57.4-41.8-106.1-99.2-108.7l-86.9-3.9c-38.3-1.7-75.8-11.7-110-29.1l-95.7-48.8
		c-5-2.6-11.2-0.6-13.7,4.5c-2.6,5-0.6,11.2,4.5,13.7l36.9,18.8l94.1,56c5.5,3.3,12.3,4.1,18.4,2.1l19.2-6.2
		c16.1-5.2,32.9-7.5,49.8-6.7l83.4,3.8c41.6,1.9,73.9,37.2,72,78.8l-3.7,81.7c-1,20.9-18.7,37.1-39.6,36.2
		c-20.9-1-37.1-18.7-36.2-39.6l0.8-18.1c1.6-34.9-25.4-64.5-60.3-66.1l-8.2-0.4c-7.9-0.4-14.6,5.7-14.9,13.6l-0.1,1.5
		c-0.6,12.4,9,22.9,21.4,23.4l22,1c21.4,1,37.9,19.1,37,40.5l-0.2,4.1c-1.4,31.6-27.5,56.5-59.1,56.5l-33.7,0
		c-26.4,0-50.4-15.5-61.3-39.5L407,326.4c-4.2-9.2-10.4-17.2-18.3-23.5l-125.2-99.1c-9.7-7.7-23.8-6.1-31.5,3.7
		c-0.9,1.2-1.7,2.4-2.4,3.7l-15,29.4c-5.6,11-1.2,24.6,9.8,30.2c1.3,0.7,2.7,1.2,4.1,1.6l13.7,3.8c0.4,0.1,0.8,0.1,1.2,0l28.8-9.5
		c18.8-6.2,39.3,2.8,47.5,20.9l7.5,16.6c0.4,1,1.5,1.4,2.5,1.1l17.3-5.7c18.8-6.2,39.2,2.8,47.4,20.8l10.8,23.8
		c2.5,5.6,3.8,11.6,3.8,17.7c0,23.7-19.2,42.8-42.8,42.8l-18.9,0c-14.2,0-27.9-5.1-38.6-14.3L266.7,354.2z"/>
</g>
<g id="LWPOLYLINE_105_">
	
		<line fill="none" stroke="#000000" stroke-width="0.8093" stroke-linecap="round" stroke-linejoin="round" stroke-miterlimit="10" x1="310.3" y1="176.1" x2="329.1" y2="144.5"/>
</g>
<g id="LWPOLYLINE_106_">
	
		<line fill="none" stroke="#000000" stroke-width="0.8093" stroke-linecap="round" stroke-linejoin="round" stroke-miterlimit="10" x1="319.9" y1="181.8" x2="338.7" y2="150.3"/>
</g>
<g id="LWPOLYLINE_107_">
	
		<line fill="none" stroke="#000000" stroke-width="0.8093" stroke-linecap="round" stroke-linejoin="round" stroke-miterlimit="10" x1="315" y1="178.9" x2="333.8" y2="147.4"/>
</g>
<g id="LWPOLYLINE_108_">
	
		<line fill="none" stroke="#000000" stroke-width="0.8093" stroke-linecap="round" stroke-linejoin="round" stroke-miterlimit="10" x1="326.3" y1="185.6" x2="345.2" y2="154.1"/>
</g>
<g id="LWPOLYLINE_109_">
	
		<line fill="none" stroke="#000000" stroke-width="0.8093" stroke-linecap="round" stroke-linejoin="round" stroke-miterlimit="10" x1="335.9" y1="191.4" x2="354.8" y2="159.8"/>
</g>
<g id="LWPOLYLINE_110_">
	
		<line fill="none" stroke="#000000" stroke-width="0.8093" stroke-linecap="round" stroke-linejoin="round" stroke-miterlimit="10" x1="331" y1="188.4" x2="349.9" y2="156.9"/>
</g>
<g id="LWPOLYLINE_111_">
	
		<line fill="none" stroke="#000000" stroke-width="0.8093" stroke-linecap="round" stroke-linejoin="round" stroke-miterlimit="10" x1="574.6" y1="297.6" x2="614.5" y2="299.4"/>
</g>
<g id="LWPOLYLINE_112_">
	
		<line fill="none" stroke="#000000" stroke-width="0.8093" stroke-linecap="round" stroke-linejoin="round" stroke-miterlimit="10" x1="621.9" y1="299.7" x2="658.6" y2="301.4"/>
</g>
<g id="LWPOLYLINE_113_">
	
		<path fill="none" stroke="#000000" stroke-width="0.8093" stroke-linecap="round" stroke-linejoin="round" stroke-miterlimit="10" d="
		M311.3,275.7l-0.8,8.6c-0.9,8.3,3.9,16.1,11.7,18.9l6.7,2.2"/>
</g>
<g id="LWPOLYLINE_114_">
	
		<line fill="none" stroke="#000000" stroke-width="0.8093" stroke-linecap="round" stroke-linejoin="round" stroke-miterlimit="10" x1="342.4" y1="195.2" x2="361.2" y2="163.7"/>
</g>
<g id="LWPOLYLINE_115_">
	
		<line fill="none" stroke="#000000" stroke-width="0.8093" stroke-linecap="round" stroke-linejoin="round" stroke-miterlimit="10" x1="352" y1="200.9" x2="370.8" y2="169.4"/>
</g>
<g id="LWPOLYLINE_116_">
	
		<line fill="none" stroke="#000000" stroke-width="0.8093" stroke-linecap="round" stroke-linejoin="round" stroke-miterlimit="10" x1="347.1" y1="198" x2="365.9" y2="166.5"/>
</g>
<g id="LWPOLYLINE_117_">
	
		<line fill="none" stroke="#000000" stroke-width="0.8093" stroke-linecap="round" stroke-linejoin="round" stroke-miterlimit="10" x1="358.4" y1="204.8" x2="377.2" y2="173.2"/>
</g>
<g id="LWPOLYLINE_118_">
	
		<line fill="none" stroke="#000000" stroke-width="0.8093" stroke-linecap="round" stroke-linejoin="round" stroke-miterlimit="10" x1="368" y1="210.5" x2="386.8" y2="179"/>
</g>
<g id="LWPOLYLINE_119_">
	
		<line fill="none" stroke="#000000" stroke-width="0.8093" stroke-linecap="round" stroke-linejoin="round" stroke-miterlimit="10" x1="363.1" y1="207.6" x2="381.9" y2="176.1"/>
</g>
<g id="LWPOLYLINE_120_">
	
		<path fill="none" stroke="#000000" stroke-width="0.8093" stroke-linecap="round" stroke-linejoin="round" stroke-miterlimit="10" d="
		M284.4,301.5l-5.2-2.3c-8.7-3.3-18.5-0.7-24.3,6.6l-5.6,6.7"/>
</g>
<g id="LWPOLYLINE_121_">
	
		<path fill="none" stroke="#000000" stroke-width="0.8093" stroke-linecap="round" stroke-linejoin="round" stroke-miterlimit="10" d="
		M359.2,334.3l-8.9-3c-7.2-2.5-15.2-0.6-20.5,4.8l-5.8,5.6"/>
</g>
<g id="LWPOLYLINE_122_">
	
		<line fill="none" stroke="#000000" stroke-width="0.8093" stroke-linecap="round" stroke-linejoin="round" stroke-miterlimit="10" x1="586.4" y1="226.6" x2="588.1" y2="189.9"/>
</g>
<g id="LWPOLYLINE_123_">
	
		<line fill="none" stroke="#000000" stroke-width="0.8093" stroke-linecap="round" stroke-linejoin="round" stroke-miterlimit="10" x1="539.4" y1="266.5" x2="551.7" y2="231.9"/>
</g>
<g id="LWPOLYLINE_124_">
	
		<line fill="none" stroke="#000000" stroke-width="0.8093" stroke-linecap="round" stroke-linejoin="round" stroke-miterlimit="10" x1="354.8" y1="276.1" x2="377.6" y2="247.3"/>
</g>
<g id="LWPOLYLINE_125_">
	
		<line fill="none" stroke="#000000" stroke-width="0.8093" stroke-linecap="round" stroke-linejoin="round" stroke-miterlimit="10" x1="345.2" y1="268.5" x2="368" y2="239.7"/>
</g>
<g id="LWPOLYLINE_126_">
	
		<line fill="none" stroke="#000000" stroke-width="0.8093" stroke-linecap="round" stroke-linejoin="round" stroke-miterlimit="10" x1="364.4" y1="283.7" x2="387.2" y2="254.9"/>
</g>
<g id="LWPOLYLINE_127_">
	
		<line fill="none" stroke="#000000" stroke-width="0.8093" stroke-linecap="round" stroke-linejoin="round" stroke-miterlimit="10" x1="337.4" y1="262.3" x2="360.2" y2="233.5"/>
</g>
<g id="LWPOLYLINE_128_">
	
		<line fill="none" stroke="#000000" stroke-width="0.8093" stroke-linecap="round" stroke-linejoin="round" stroke-miterlimit="10" x1="332.9" y1="258.7" x2="355.7" y2="229.9"/>
</g>
<g id="LWPOLYLINE_129_">
	
		<line fill="none" stroke="#000000" stroke-width="0.8093" stroke-linecap="round" stroke-linejoin="round" stroke-miterlimit="10" x1="328.4" y1="255.1" x2="351.2" y2="226.3"/>
</g>
<g id="LWPOLYLINE_130_">
	
		<line fill="none" stroke="#000000" stroke-width="0.8093" stroke-linecap="round" stroke-linejoin="round" stroke-miterlimit="10" x1="311.9" y1="242.1" x2="334.7" y2="213.4"/>
</g>
<g id="LWPOLYLINE_131_">
	
		<line fill="none" stroke="#000000" stroke-width="0.8093" stroke-linecap="round" stroke-linejoin="round" stroke-miterlimit="10" x1="307.4" y1="238.6" x2="330.2" y2="209.8"/>
</g>
<g id="LWPOLYLINE_132_">
	
		<line fill="none" stroke="#000000" stroke-width="0.8093" stroke-linecap="round" stroke-linejoin="round" stroke-miterlimit="10" x1="302.9" y1="235" x2="325.7" y2="206.2"/>
</g>
<g id="LWPOLYLINE_133_">
	
		<line fill="none" stroke="#000000" stroke-width="0.8093" stroke-linecap="round" stroke-linejoin="round" stroke-miterlimit="10" x1="296.7" y1="230" x2="319.5" y2="201.3"/>
</g>
<g id="LWPOLYLINE_134_">
	
		<line fill="none" stroke="#000000" stroke-width="0.8093" stroke-linecap="round" stroke-linejoin="round" stroke-miterlimit="10" x1="292.2" y1="226.5" x2="315" y2="197.7"/>
</g>
<g id="LWPOLYLINE_135_">
	
		<line fill="none" stroke="#000000" stroke-width="0.8093" stroke-linecap="round" stroke-linejoin="round" stroke-miterlimit="10" x1="287.6" y1="222.9" x2="310.4" y2="194.1"/>
</g>
<g id="LWPOLYLINE_136_">
	
		<line fill="none" stroke="#000000" stroke-width="0.8093" stroke-linecap="round" stroke-linejoin="round" stroke-miterlimit="10" x1="582.9" y1="443.9" x2="588.8" y2="443.8"/>
</g>
<g id="LWPOLYLINE_137_">
	
		<polyline fill="none" stroke="#000000" stroke-width="0.5999" stroke-linecap="round" stroke-linejoin="round" stroke-miterlimit="10" points="
		442.1,424.8 466.3,424.8 457.4,422.8 457.4,424.8 	"/>
</g>
<g id="LWPOLYLINE_138_">
	
		<polyline fill="none" stroke="#000000" stroke-width="0.5999" stroke-linecap="round" stroke-linejoin="round" stroke-miterlimit="10" points="
		442.1,424.8 466.3,424.8 457.4,426.9 457.4,424.8 	"/>
</g>
<g id="LWPOLYLINE_139_">
	
		<polyline fill="none" stroke="#000000" stroke-width="0.5999" stroke-linecap="round" stroke-linejoin="round" stroke-miterlimit="10" points="
		642.9,409.4 663.5,396.7 654.9,399.6 656,401.4 	"/>
</g>
<g id="LWPOLYLINE_140_">
	
		<polyline fill="none" stroke="#000000" stroke-width="0.5999" stroke-linecap="round" stroke-linejoin="round" stroke-miterlimit="10" points="
		642.9,409.4 663.5,396.7 657,403.1 656,401.4 	"/>
</g>
<g id="LWPOLYLINE_141_">
	
		<polyline fill="none" stroke="#000000" stroke-width="0.5999" stroke-linecap="round" stroke-linejoin="round" stroke-miterlimit="10" points="
		701.4,255.7 692.6,233.2 693.9,242.2 695.8,241.5 	"/>
</g>
<g id="LWPOLYLINE_142_">
	
		<polyline fill="none" stroke="#000000" stroke-width="0.5999" stroke-linecap="round" stroke-linejoin="round" stroke-miterlimit="10" points="
		701.4,255.7 692.6,233.2 697.7,240.7 695.8,241.5 	"/>
</g>
<g id="LWPOLYLINE_143_">
	
		<polyline fill="none" stroke="#000000" stroke-width="0.5999" stroke-linecap="round" stroke-linejoin="round" stroke-miterlimit="10" points="
		548.7,166 524.5,164.7 533.2,167.2 533.4,165.2 	"/>
</g>
<g id="LWPOLYLINE_144_">
	
		<polyline fill="none" stroke="#000000" stroke-width="0.5999" stroke-linecap="round" stroke-linejoin="round" stroke-miterlimit="10" points="
		548.7,166 524.5,164.7 533.5,163.1 533.4,165.2 	"/>
</g>
<g id="LWPOLYLINE_145_">
	
		<polyline fill="none" stroke="#000000" stroke-width="0.5999" stroke-linecap="round" stroke-linejoin="round" stroke-miterlimit="10" points="
		512.4,384.6 488.2,384.4 497,386.5 497,384.5 	"/>
</g>
<g id="LWPOLYLINE_146_">
	
		<polyline fill="none" stroke="#000000" stroke-width="0.5999" stroke-linecap="round" stroke-linejoin="round" stroke-miterlimit="10" points="
		512.4,384.6 488.2,384.4 497,382.5 497,384.5 	"/>
</g>
<g id="LWPOLYLINE_147_">
	
		<polyline fill="none" stroke="#000000" stroke-width="0.5999" stroke-linecap="round" stroke-linejoin="round" stroke-miterlimit="10" points="
		498.8,205.2 523,205.9 514.2,203.6 514.1,205.6 	"/>
</g>
<g id="LWPOLYLINE_148_">
	
		<polyline fill="none" stroke="#000000" stroke-width="0.5999" stroke-linecap="round" stroke-linejoin="round" stroke-miterlimit="10" points="
		498.8,205.2 523,205.9 514.1,207.7 514.1,205.6 	"/>
</g>
<g id="LWPOLYLINE_149_">
	
		<polyline fill="none" stroke="#000000" stroke-width="0.5999" stroke-linecap="round" stroke-linejoin="round" stroke-miterlimit="10" points="
		250.1,374.6 268.2,390.7 262.9,383.3 261.6,384.8 	"/>
</g>
<g id="LWPOLYLINE_150_">
	
		<polyline fill="none" stroke="#000000" stroke-width="0.5999" stroke-linecap="round" stroke-linejoin="round" stroke-miterlimit="10" points="
		250.1,374.6 268.2,390.7 260.2,386.3 261.6,384.8 	"/>
</g>
<g id="LWPOLYLINE_151_">
	
		<polyline fill="none" stroke="#000000" stroke-width="0.5999" stroke-linecap="round" stroke-linejoin="round" stroke-miterlimit="10" points="
		291.2,202.8 272.3,187.7 278,194.8 279.2,193.2 	"/>
</g>
<g id="LWPOLYLINE_152_">
	
		<polyline fill="none" stroke="#000000" stroke-width="0.5999" stroke-linecap="round" stroke-linejoin="round" stroke-miterlimit="10" points="
		291.2,202.8 272.3,187.7 280.5,191.7 279.2,193.2 	"/>
</g>
<g id="LWPOLYLINE_153_">
	
		<polyline fill="none" stroke="#000000" stroke-width="0.5999" stroke-linecap="round" stroke-linejoin="round" stroke-miterlimit="10" points="
		378.6,330.1 388.3,352.3 386.6,343.3 384.8,344.1 	"/>
</g>
<g id="LWPOLYLINE_154_">
	
		<polyline fill="none" stroke="#000000" stroke-width="0.5999" stroke-linecap="round" stroke-linejoin="round" stroke-miterlimit="10" points="
		378.6,330.1 388.3,352.3 382.9,345 384.8,344.1 	"/>
</g>
<g id="LWPOLYLINE_155_">
	
		<line fill="none" stroke="#000000" stroke-width="0.8093" stroke-linecap="round" stroke-linejoin="round" stroke-miterlimit="10" x1="374.4" y1="214.3" x2="393.2" y2="182.8"/>
</g>
<g id="LWPOLYLINE_156_">
	
		<line fill="none" stroke="#000000" stroke-width="0.8093" stroke-linecap="round" stroke-linejoin="round" stroke-miterlimit="10" x1="384" y1="220.1" x2="402.9" y2="188.6"/>
</g>
<g id="LWPOLYLINE_157_">
	
		<line fill="none" stroke="#000000" stroke-width="0.8093" stroke-linecap="round" stroke-linejoin="round" stroke-miterlimit="10" x1="379.1" y1="217.2" x2="397.9" y2="185.6"/>
</g>
<g id="HATCH_43_">
	<polygon fill-rule="evenodd" clip-rule="evenodd" fill="#CC6600" points="366.8,99.1 346.8,88.9 330.2,121.7 350.1,131.8 
		366.8,99.1 	"/>
</g>
<g id="HATCH_44_">
	<polygon fill-rule="evenodd" clip-rule="evenodd" fill="#CC6600" points="338.5,84.7 328.6,79.6 311.9,112.4 321.9,117.4 
		338.5,84.7 	"/>
</g>
<g id="HATCH_45_">
	<path fill-rule="evenodd" clip-rule="evenodd" d="M378.9,448h-16.3l0,8.2h16.3L378.9,448z M460.5,448h-81.6l0,8.2h81.6L460.5,448z
		 M476.8,448h-16.3l0,8.2h16.3L476.8,448z"/>
</g>
<g id="LWPOLYLINE_81_">
	
		<polyline fill="none" stroke="#000000" stroke-width="0.5396" stroke-linecap="round" stroke-linejoin="round" stroke-miterlimit="10" points="
		476.8,456.1 362.6,456.1 362.6,448 476.8,448 476.8,456.1 	"/>
</g>
<g id="LWPOLYLINE_86_">
	
		<line fill="none" stroke="#000000" stroke-width="0.5396" stroke-linecap="round" stroke-linejoin="round" stroke-miterlimit="10" x1="378.9" y1="456.1" x2="378.9" y2="448"/>
</g>
<g id="LWPOLYLINE_87_">
	
		<line fill="none" stroke="#000000" stroke-width="0.5396" stroke-linecap="round" stroke-linejoin="round" stroke-miterlimit="10" x1="460.5" y1="456.1" x2="460.5" y2="448"/>
</g>
<g id="HATCH_46_">
	<polygon fill-rule="evenodd" clip-rule="evenodd" fill="#CC6600" points="422.3,126.8 402.1,117.1 385.4,149.8 405.5,159.5 
		422.3,126.8 	"/>
</g>
<g id="HATCH_47_">
	<polygon fill-rule="evenodd" clip-rule="evenodd" fill="#CC6600" points="393.8,112.9 383.8,107.8 367.1,140.5 377.1,145.6 
		393.8,112.9 	"/>
</g>
<g id="HATCH_48_">
	<polygon fill-rule="evenodd" clip-rule="evenodd" fill="#CC6600" points="321.2,140 311.3,134.9 294.6,167.7 304.6,172.7 
		321.2,140 	"/>
</g>
<g id="HATCH_49_">
	<path fill-rule="evenodd" clip-rule="evenodd" fill="#ADADAD" d="M618,330.6c0.5-10.5-0.7-21.1-3.5-31.2l-39.9-1.8
		c4.9,9.7,7.2,20.5,6.7,31.3l-0.8,18.1c-1,20.9,15.3,38.7,36.2,39.6c20.9,1,38.7-15.3,39.6-36.2l2.2-49.1l-36.7-1.7l-2.2,49.1
		c0,0.7-0.6,1.2-1.3,1.2c-0.7,0-1.2-0.6-1.2-1.3L618,330.6L618,330.6z"/>
</g>
<g id="HATCH_52_">
	<polygon fill-rule="evenodd" clip-rule="evenodd" fill="#CC6600" points="350.4,331.4 329.9,336.2 324.1,341.8 341.2,340.1 
		358.5,334.4 359.2,334.3 	"/>
</g>
<g id="HATCH_53_">
	<polygon fill-rule="evenodd" clip-rule="evenodd" fill="#CC6600" points="283.7,301.6 284.4,301.5 279.2,299.2 254.9,305.8 
		249.3,312.5 254.9,311.1 	"/>
</g>
<g id="HATCH_54_">
	<path fill-rule="evenodd" clip-rule="evenodd" fill="#CC6600" d="M387.2,254.9l-9.6-7.6l-22.8,28.8l9.6,7.6L387.2,254.9z
		 M377.6,247.3l-9.6-7.6l-22.8,28.8l9.6,7.6L377.6,247.3z M360.2,233.5l-4.5-3.6l-22.8,28.8l4.5,3.6L360.2,233.5z M355.7,229.9
		l-4.5-3.6l-22.8,28.8l4.5,3.6L355.7,229.9z"/>
</g>
<g id="HATCH_55_">
	<path fill-rule="evenodd" clip-rule="evenodd" fill="#CC6600" d="M334.7,213.4l-4.5-3.6l-22.8,28.8l4.5,3.6L334.7,213.4z
		 M330.2,209.8l-4.5-3.6L302.9,235l4.5,3.6L330.2,209.8z M319.5,201.3l-4.5-3.6l-22.8,28.8l4.5,3.6L319.5,201.3z M315,197.7
		l-4.5-3.6l-22.8,28.8l4.5,3.6L315,197.7z"/>
</g>
<g id="HATCH_56_">
	<polygon fill-rule="evenodd" clip-rule="evenodd" fill="#CC6600" points="319.7,287.6 311.3,275.7 310.5,284.3 322.3,303.2 
		327.9,305 327.2,304.1 	"/>
</g>
<g id="HATCH_57_">
	<polygon fill-rule="evenodd" clip-rule="evenodd" fill="#CC6600" points="338.7,150.3 329.1,144.5 310.3,176.1 319.9,181.8 
		338.7,150.3 	"/>
</g>
<g id="HATCH_58_">
	<polygon fill-rule="evenodd" clip-rule="evenodd" fill="#CC6600" points="354.8,159.8 345.2,154.1 326.3,185.6 335.9,191.4 
		354.8,159.8 	"/>
</g>
<g id="HATCH_59_">
	<polygon fill-rule="evenodd" clip-rule="evenodd" fill="#CC6600" points="370.8,169.4 361.2,163.7 342.4,195.2 352,200.9 
		370.8,169.4 	"/>
</g>
<g id="HATCH_60_">
	<polygon fill-rule="evenodd" clip-rule="evenodd" fill="#CC6600" points="386.8,179 377.2,173.2 358.4,204.8 368,210.5 386.8,179 	
		"/>
</g>
<g id="HATCH_61_">
	<path fill-rule="evenodd" clip-rule="evenodd" fill="none" d="M457.4,422.8v2h8.9L457.4,422.8z M466.3,424.8h-8.9v2L466.3,424.8z"
		/>
	
		<path fill="none" stroke="#000000" stroke-width="1.000000e-003" stroke-linecap="round" stroke-linejoin="round" stroke-miterlimit="10" d="
		M461,426l1.2-1.2 M462.2,424.8l0.8-0.8"/>
</g>
<g id="HATCH_62_">
	<path fill-rule="evenodd" clip-rule="evenodd" d="M457.4,422.8v2h8.9L457.4,422.8z M466.3,424.8h-8.9v2L466.3,424.8z"/>
</g>
<g id="HATCH_63_">
	<path fill-rule="evenodd" clip-rule="evenodd" fill="none" d="M654.9,399.6l1.1,1.7l7.5-4.7L654.9,399.6z M663.5,396.7l-7.5,4.7
		l1.1,1.7L663.5,396.7z"/>
	
		<path fill="none" stroke="#000000" stroke-width="1.000000e-003" stroke-linecap="round" stroke-linejoin="round" stroke-miterlimit="10" d="
		M659.6,400.5l0.4-1.7 M660,398.8l0.2-1"/>
</g>
<g id="HATCH_64_">
	<path fill-rule="evenodd" clip-rule="evenodd" d="M654.9,399.6l1.1,1.7l7.5-4.7L654.9,399.6z M663.5,396.7l-7.5,4.7l1.1,1.7
		L663.5,396.7z"/>
</g>
<g id="HATCH_65_">
	<path fill-rule="evenodd" clip-rule="evenodd" fill="none" d="M693.9,242.2l1.9-0.7l-3.2-8.3L693.9,242.2z M692.6,233.2l3.2,8.3
		l1.9-0.7L692.6,233.2z"/>
	
		<path fill="none" stroke="#000000" stroke-width="1.000000e-003" stroke-linecap="round" stroke-linejoin="round" stroke-miterlimit="10" d="
		M695.6,237.7l-1.6-0.7 M694.1,237l-1-0.4"/>
</g>
<g id="HATCH_66_">
	<path fill-rule="evenodd" clip-rule="evenodd" d="M693.9,242.2l1.9-0.7l-3.2-8.3L693.9,242.2z M692.6,233.2l3.2,8.3l1.9-0.7
		L692.6,233.2z"/>
</g>
<g id="HATCH_67_">
	<path fill-rule="evenodd" clip-rule="evenodd" fill="none" d="M533.2,167.2l0.1-2l-8.9-0.5L533.2,167.2z M524.5,164.7l8.9,0.5
		l0.1-2L524.5,164.7z"/>
	
		<path fill="none" stroke="#000000" stroke-width="1.000000e-003" stroke-linecap="round" stroke-linejoin="round" stroke-miterlimit="10" d="
		M529.8,163.8l-1.3,1.1 M528.6,164.9l-0.8,0.7"/>
</g>
<g id="HATCH_68_">
	<path fill-rule="evenodd" clip-rule="evenodd" d="M533.2,167.2l0.1-2l-8.9-0.5L533.2,167.2z M524.5,164.7l8.9,0.5l0.1-2
		L524.5,164.7z"/>
</g>
<g id="HATCH_69_">
	<path fill-rule="evenodd" clip-rule="evenodd" fill="none" d="M497,386.5l0-2l-8.9-0.1L497,386.5z M488.2,384.4l8.9,0.1l0-2
		L488.2,384.4z"/>
	
		<path fill="none" stroke="#000000" stroke-width="1.000000e-003" stroke-linecap="round" stroke-linejoin="round" stroke-miterlimit="10" d="
		M493.5,383.3l-1.2,1.2 M492.2,384.5l-0.8,0.8"/>
</g>
<g id="HATCH_70_">
	<path fill-rule="evenodd" clip-rule="evenodd" d="M497,386.5l0-2l-8.9-0.1L497,386.5z M488.2,384.4l8.9,0.1l0-2L488.2,384.4z"/>
</g>
<g id="HATCH_71_">
	<path fill-rule="evenodd" clip-rule="evenodd" fill="none" d="M514.2,203.6l-0.1,2l8.9,0.3L514.2,203.6z M523,205.9l-8.9-0.3
		l-0.1,2L523,205.9z"/>
	
		<path fill="none" stroke="#000000" stroke-width="1.000000e-003" stroke-linecap="round" stroke-linejoin="round" stroke-miterlimit="10" d="
		M517.7,207l1.2-1.2 M518.9,205.8l0.8-0.7"/>
</g>
<g id="HATCH_72_">
	<path fill-rule="evenodd" clip-rule="evenodd" d="M514.2,203.6l-0.1,2l8.9,0.3L514.2,203.6z M523,205.9l-8.9-0.3l-0.1,2L523,205.9z
		"/>
</g>
<g id="HATCH_73_">
	<path fill-rule="evenodd" clip-rule="evenodd" fill="none" d="M262.9,383.3l-1.4,1.5l6.6,5.9L262.9,383.3z M268.2,390.7l-6.6-5.9
		l-1.4,1.5L268.2,390.7z"/>
	
		<path fill="none" stroke="#000000" stroke-width="1.000000e-003" stroke-linecap="round" stroke-linejoin="round" stroke-miterlimit="10" d="
		M263.4,388.1l1.7-0.1 M265.1,388l1.1-0.1"/>
</g>
<g id="HATCH_74_">
	<path fill-rule="evenodd" clip-rule="evenodd" d="M262.9,383.3l-1.4,1.5l6.6,5.9L262.9,383.3z M268.2,390.7l-6.6-5.9l-1.4,1.5
		L268.2,390.7z"/>
</g>
<g id="HATCH_75_">
	<path fill-rule="evenodd" clip-rule="evenodd" fill="none" d="M278,194.8l1.3-1.6l-7-5.5L278,194.8z M272.3,187.7l7,5.5l1.3-1.6
		L272.3,187.7z"/>
	
		<path fill="none" stroke="#000000" stroke-width="1.000000e-003" stroke-linecap="round" stroke-linejoin="round" stroke-miterlimit="10" d="
		M277.2,190.1l-1.7,0.2 M275.5,190.3l-1.1,0.1"/>
</g>
<g id="HATCH_76_">
	<path fill-rule="evenodd" clip-rule="evenodd" d="M278,194.8l1.3-1.6l-7-5.5L278,194.8z M272.3,187.7l7,5.5l1.3-1.6L272.3,187.7z"
		/>
</g>
<g id="HATCH_77_">
	<path fill-rule="evenodd" clip-rule="evenodd" fill="none" d="M386.6,343.3l-1.9,0.8l3.6,8.1L386.6,343.3z M388.3,352.3l-3.6-8.1
		l-1.9,0.8L388.3,352.3z"/>
	
		<path fill="none" stroke="#000000" stroke-width="1.000000e-003" stroke-linecap="round" stroke-linejoin="round" stroke-miterlimit="10" d="
		M385.1,347.9l1.6,0.6 M386.7,348.5l1,0.4"/>
</g>
<g id="HATCH_78_">
	<path fill-rule="evenodd" clip-rule="evenodd" d="M386.6,343.3l-1.9,0.8l3.6,8.1L386.6,343.3z M388.3,352.3l-3.6-8.1l-1.9,0.8
		L388.3,352.3z"/>
</g>
<g id="HATCH_79_">
	<polygon fill-rule="evenodd" clip-rule="evenodd" fill="#CC6600" points="402.9,188.6 393.2,182.8 374.4,214.3 384,220.1 
		402.9,188.6 	"/>
</g>
<g id="HATCH_80_">
	<polygon fill-rule="evenodd" clip-rule="evenodd" fill="none" stroke="#FFFFFF" stroke-miterlimit="10" points="357.3,104.9 
		438.8,54.4 608,54.4 608,77 433.4,77 420.3,131.3 422.3,77 357.3,104.9 	"/>
</g>
<g id="MTEXT">
	<g>
		<path fill="#FFFFFF" d="M447.2,58.8c2.4,0,3.6,0.9,3.6,2.8c0,0.8-0.2,1.5-0.7,2s-1.2,0.9-2.1,1.1v0.1c0.6,0.2,1.1,0.5,1.5,0.9
			c0.3,0.4,0.5,1,0.5,1.6c0,1.2-0.4,2.1-1.3,2.8c-0.9,0.7-2,1-3.4,1h-3.9l2.6-12.3H447.2z M443.1,69.9h2.2c1,0,1.8-0.2,2.3-0.7
			s0.8-1.1,0.8-1.9c0-0.7-0.2-1.2-0.6-1.5c-0.4-0.3-1-0.5-1.8-0.5h-2L443.1,69.9z M444.3,64h2.1c0.9,0,1.6-0.2,2.1-0.6
			c0.5-0.4,0.8-1,0.8-1.7c0-0.6-0.2-1-0.6-1.3c-0.4-0.3-1-0.4-1.8-0.4h-1.8L444.3,64z"/>
		<path fill="#FFFFFF" d="M454.8,61.9l-0.9,4.1c0.7-0.1,1.3-0.2,1.8-0.2c1,0,1.7,0.2,2.1,0.6c0.5,0.4,0.7,1,0.7,1.8
			c0,1-0.3,1.7-0.9,2.3s-1.5,0.9-2.6,0.9c-1,0-1.7-0.2-2.2-0.7s-0.8-1.1-0.8-2c0-0.5,0.1-1.1,0.2-1.6l1.1-5.1H454.8z M455.4,66.9
			c-0.6,0-1.1,0.1-1.7,0.2c-0.1,0.6-0.2,1.1-0.2,1.4c0,0.5,0.1,0.9,0.4,1.2s0.7,0.4,1.3,0.4c0.6,0,1.2-0.2,1.5-0.5s0.5-0.8,0.5-1.3
			c0-0.5-0.1-0.8-0.4-1C456.5,67,456.1,66.9,455.4,66.9z M461,71.1h-1.4l2-9.3h1.4L461,71.1z"/>
		<path fill="#FFFFFF" d="M467.7,71.3c-1.1,0-1.9-0.3-2.5-0.9c-0.6-0.6-0.9-1.5-0.9-2.5c0-1.1,0.2-2.2,0.6-3.1s1-1.7,1.7-2.2
			s1.6-0.8,2.5-0.8c0.8,0,1.5,0.1,2.3,0.4l-0.4,1.2c-0.7-0.3-1.3-0.4-1.8-0.4c-0.6,0-1.2,0.2-1.7,0.6c-0.5,0.4-0.9,1-1.2,1.8
			c-0.3,0.8-0.4,1.6-0.4,2.5c0,0.7,0.2,1.3,0.6,1.7c0.4,0.4,0.9,0.6,1.5,0.6c0.4,0,0.8-0.1,1.1-0.2c0.4-0.1,0.7-0.2,1.1-0.4v1.2
			C469.4,71.1,468.6,71.3,467.7,71.3z"/>
		<path fill="#FFFFFF" d="M476.7,61.7c1.1,0,1.9,0.3,2.5,0.9s0.9,1.5,0.9,2.6c0,1.1-0.2,2.1-0.6,3s-1,1.7-1.6,2.2s-1.5,0.8-2.3,0.8
			c-1.1,0-1.9-0.3-2.5-1s-0.9-1.5-0.9-2.6c0-1.1,0.2-2.1,0.6-3c0.4-0.9,1-1.7,1.7-2.2C475.1,62,475.8,61.7,476.7,61.7z M478.7,65.1
			c0-0.6-0.2-1.2-0.5-1.6c-0.4-0.4-0.8-0.6-1.4-0.6c-0.6,0-1.2,0.2-1.7,0.6c-0.5,0.4-0.9,1-1.1,1.7c-0.3,0.7-0.4,1.6-0.4,2.5
			c0,0.7,0.2,1.3,0.5,1.7s0.9,0.6,1.5,0.6c0.6,0,1.1-0.2,1.6-0.6c0.5-0.4,0.8-1,1.1-1.8C478.5,66.9,478.7,66.1,478.7,65.1z"/>
		<path fill="#FFFFFF" d="M488.2,61.9h1.8l-4.6,4.6l3.2,4.7h-1.7l-3-4.6l-1,4.6h-1.4l2-9.3h1.4l-1,4.5L488.2,61.9z"/>
		<path fill="#FFFFFF" d="M493,61.9l-1.3,5.9c-0.1,0.5-0.2,0.9-0.2,1.2c0,0.8,0.4,1.2,1.2,1.2c0.5,0,1-0.2,1.5-0.5s0.9-0.8,1.3-1.5
			c0.4-0.6,0.6-1.4,0.8-2.3l0.8-4h1.4l-2,9.3h-1.2l0.2-1.7h-0.1c-0.6,0.7-1.1,1.2-1.6,1.5c-0.5,0.3-1,0.4-1.6,0.4
			c-0.7,0-1.3-0.2-1.7-0.6s-0.6-0.9-0.6-1.7c0-0.3,0.1-0.8,0.2-1.5l1.2-5.7H493z"/>
		<path fill="#FFFFFF" d="M503,61.9l-1.3,5.9c-0.1,0.5-0.2,0.9-0.2,1.2c0,0.8,0.4,1.2,1.2,1.2c0.5,0,1-0.2,1.5-0.5s0.9-0.8,1.3-1.5
			c0.4-0.6,0.6-1.4,0.8-2.3l0.8-4h1.4l-2,9.3h-1.2l0.2-1.7h-0.1c-0.6,0.7-1.1,1.2-1.6,1.5c-0.5,0.3-1,0.4-1.6,0.4
			c-0.7,0-1.3-0.2-1.7-0.6s-0.6-0.9-0.6-1.7c0-0.3,0.1-0.8,0.2-1.5l1.2-5.7H503z M508.7,58c-0.3,1.8-1.5,2.6-3.5,2.6
			c-0.9,0-1.5-0.2-2-0.5c-0.5-0.3-0.7-0.9-0.7-1.5c0-0.2,0-0.4,0.1-0.6h1.2c0,0.2-0.1,0.4-0.1,0.5c0,0.7,0.5,1.1,1.5,1.1
			c0.6,0,1.1-0.1,1.4-0.4c0.3-0.2,0.5-0.6,0.6-1.2H508.7z"/>
		<path fill="#FFFFFF" d="M519.5,71.1l1.3-5.8c0.1-0.5,0.2-0.9,0.2-1.1c0-0.4-0.1-0.7-0.3-0.9c-0.2-0.2-0.5-0.3-0.9-0.3
			c-0.5,0-0.9,0.2-1.4,0.5c-0.4,0.3-0.8,0.8-1.2,1.4c-0.3,0.6-0.6,1.4-0.8,2.3l-0.9,4h-1.4l2-9.3h1.2l-0.2,1.7h0.1
			c0.5-0.7,1-1.2,1.5-1.4c0.5-0.3,1-0.4,1.5-0.4c0.6,0,1.1,0.2,1.5,0.5c0.3,0.4,0.5,0.9,0.6,1.5h0.1c0.5-0.7,1-1.2,1.5-1.6
			c0.5-0.3,1.1-0.5,1.7-0.5c0.7,0,1.3,0.2,1.7,0.6c0.4,0.4,0.6,0.9,0.6,1.7c0,0.4-0.1,0.9-0.2,1.5l-1.2,5.7h-1.4l1.3-5.8
			c0.1-0.6,0.2-1,0.2-1.2c0-0.3-0.1-0.6-0.3-0.8c-0.2-0.2-0.5-0.3-0.9-0.3c-0.5,0-0.9,0.2-1.4,0.5c-0.4,0.3-0.8,0.8-1.2,1.4
			s-0.6,1.3-0.8,2.1l-0.9,4.2H519.5z"/>
		<path fill="#FFFFFF" d="M533.3,71.3c-0.5,0-1-0.1-1.4-0.4c-0.4-0.3-0.7-0.7-1-1.2h-0.1l0,0.3c0,0.1,0,0.3-0.1,0.6s-0.4,1.8-1,4.7
			h-1.4l2.8-13.4h1.2l-0.2,1.8h0.1c1-1.3,2.1-1.9,3.1-1.9c0.8,0,1.4,0.3,1.8,0.8c0.4,0.5,0.7,1.3,0.7,2.3c0,1.2-0.2,2.3-0.6,3.3
			s-0.9,1.8-1.6,2.3C535,71,534.2,71.3,533.3,71.3z M534.9,62.9c-0.5,0-1.1,0.3-1.7,0.8c-0.6,0.5-1,1.2-1.3,2
			c-0.3,0.8-0.5,1.6-0.5,2.5c0,0.6,0.2,1.1,0.5,1.4s0.8,0.5,1.4,0.5c0.6,0,1.1-0.2,1.6-0.7s0.9-1.1,1.2-1.9c0.3-0.8,0.4-1.7,0.4-2.7
			C536.4,63.5,535.9,62.9,534.9,62.9z"/>
		<path fill="#FFFFFF" d="M544.1,61.7c0.5,0,1,0.1,1.4,0.4c0.4,0.3,0.7,0.7,0.9,1.2h0.1l0.6-1.5h1.1l-2,9.3h-1.1l0.2-1.8h-0.1
			c-1,1.3-2.1,1.9-3.2,1.9c-0.8,0-1.4-0.3-1.8-0.8s-0.7-1.3-0.7-2.3c0-1.2,0.2-2.3,0.6-3.3c0.4-1,1-1.8,1.7-2.4
			C542.5,62,543.3,61.7,544.1,61.7z M542.5,70.1c0.5,0,1.1-0.3,1.6-0.8c0.5-0.5,1-1.2,1.3-2s0.5-1.7,0.5-2.5c0-0.6-0.2-1-0.5-1.4
			c-0.3-0.3-0.7-0.5-1.2-0.5c-0.6,0-1.1,0.2-1.6,0.7s-0.9,1.1-1.2,2c-0.3,0.8-0.4,1.7-0.4,2.6c0,0.6,0.1,1.1,0.4,1.4
			C541.7,69.9,542,70.1,542.5,70.1z"/>
		<path fill="#FFFFFF" d="M556.7,71.1l1.6-7.4c-0.1,0.2-0.4,0.8-1,1.7l-3.3,5.7h-1l-0.9-5.7c-0.1-0.6-0.2-1.2-0.2-1.7l-1.6,7.4H549
			l2-9.3h1.6l1,6.1c0.1,0.8,0.2,1.4,0.2,1.7c0.2-0.4,0.5-1.1,1-1.9l3.5-6h1.7l-2,9.3H556.7z"/>
		<path fill="#FFFFFF" d="M566.6,71.1l1.3-5.8c0.1-0.6,0.2-1,0.2-1.2c0-0.4-0.1-0.6-0.3-0.9c-0.2-0.2-0.5-0.3-1-0.3
			c-0.5,0-1,0.2-1.5,0.5c-0.5,0.3-0.9,0.8-1.3,1.4c-0.4,0.6-0.6,1.4-0.8,2.3l-0.9,4h-1.4l2-9.3h1.2l-0.2,1.7h0.1
			c0.5-0.7,1.1-1.2,1.6-1.5c0.5-0.3,1-0.4,1.6-0.4c0.7,0,1.3,0.2,1.7,0.6c0.4,0.4,0.6,0.9,0.6,1.6c0,0.4-0.1,1-0.2,1.5l-1.2,5.7
			H566.6z"/>
		<path fill="#FFFFFF" d="M577.2,71.1h-1.4l1.7-8.1c-0.2-0.1-0.4-0.1-0.7-0.1c-0.4,0-0.8,0.1-1.1,0.3c-0.3,0.2-0.5,0.5-0.8,0.9
			c-0.2,0.4-0.6,1.3-1,2.6c-0.5,1.4-0.9,2.3-1.2,2.9s-0.7,1-1.1,1.2c-0.4,0.3-0.9,0.4-1.4,0.4c-0.3,0-0.5,0-0.7-0.1v-1.2
			c0.2,0.1,0.3,0.1,0.6,0.1c0.4,0,0.7-0.1,0.9-0.3s0.5-0.6,0.8-1c0.2-0.5,0.5-1.2,0.9-2.3c0.5-1.5,0.9-2.4,1.3-3
			c0.3-0.5,0.7-0.9,1.2-1.2c0.5-0.2,1.1-0.4,1.8-0.4c0.7,0,1.4,0.1,2.1,0.3L577.2,71.1z"/>
		<path fill="#FFFFFF" d="M583.5,61.9l-1.3,5.9c-0.1,0.5-0.2,0.9-0.2,1.2c0,0.8,0.4,1.2,1.2,1.2c0.5,0,1-0.2,1.5-0.5
			s0.9-0.8,1.3-1.5c0.4-0.6,0.6-1.4,0.8-2.3l0.8-4h1.4l-2,9.3H586l0.2-1.7h-0.1c-0.6,0.7-1.1,1.2-1.6,1.5c-0.5,0.3-1,0.4-1.6,0.4
			c-0.7,0-1.3-0.2-1.7-0.6s-0.6-0.9-0.6-1.7c0-0.3,0.1-0.8,0.2-1.5l1.2-5.7H583.5z"/>
		<path fill="#FFFFFF" d="M593.5,61.9l-0.8,3.9h4.5l0.8-3.9h1.4l-2,9.3h-1.4l0.9-4.2h-4.5l-0.9,4.2h-1.4l2-9.3H593.5z"/>
	</g>
</g>
<g id="HATCH_81_">
	<polygon fill-rule="evenodd" clip-rule="evenodd" fill="none" stroke="#FFFFFF" stroke-miterlimit="10" points="383.6,182.6 
		521.5,103.4 799.2,103.4 799.2,127.5 516.2,127.5 383.6,182.6 	"/>
</g>
<g id="MTEXT_1_">
	<g>
		<path fill="#FFFFFF" d="M524,110l-1.3,4.5h-0.9l0.6-4.5H524z M527,110l-1.3,4.5h-0.9l0.6-4.5H527z"/>
		<path fill="#FFFFFF" d="M528.8,122.3h-1.5L530,110h6.2l-0.3,1.3h-4.8L528.8,122.3z"/>
		<path fill="#FFFFFF" d="M539.5,122.5c-0.5,0-1-0.1-1.4-0.4c-0.4-0.3-0.7-0.7-1-1.2H537l0,0.3c0,0.1,0,0.3-0.1,0.6s-0.4,1.8-1,4.7
			h-1.4l2.8-13.4h1.2l-0.2,1.8h0.1c1-1.3,2.1-1.9,3.1-1.9c0.8,0,1.4,0.3,1.8,0.8c0.4,0.5,0.7,1.3,0.7,2.3c0,1.2-0.2,2.3-0.6,3.3
			s-0.9,1.8-1.6,2.3C541.1,122.2,540.3,122.5,539.5,122.5z M541,114.1c-0.5,0-1.1,0.3-1.7,0.8c-0.6,0.5-1,1.2-1.3,2
			c-0.3,0.8-0.5,1.6-0.5,2.5c0,0.6,0.2,1.1,0.5,1.4s0.8,0.5,1.4,0.5c0.6,0,1.1-0.2,1.6-0.7s0.9-1.1,1.2-1.9c0.3-0.8,0.4-1.7,0.4-2.7
			C542.5,114.7,542,114.1,541,114.1z"/>
		<path fill="#FFFFFF" d="M549,122.5c-1,0-1.8-0.3-2.4-0.9c-0.6-0.6-0.9-1.5-0.9-2.5c0-1.1,0.2-2.1,0.6-3c0.4-1,1-1.7,1.7-2.3
			c0.7-0.5,1.5-0.8,2.3-0.8c0.9,0,1.5,0.2,1.9,0.6c0.4,0.4,0.7,0.9,0.7,1.6c0,1-0.5,1.8-1.4,2.4c-0.9,0.6-2.3,0.9-4,0.9h-0.3l0,0.7
			c0,0.7,0.2,1.3,0.5,1.7c0.3,0.4,0.9,0.6,1.6,0.6c0.4,0,0.7-0.1,1.1-0.2c0.4-0.1,0.8-0.3,1.4-0.6v1.2c-0.5,0.2-1,0.4-1.4,0.5
			C549.9,122.4,549.5,122.5,549,122.5z M550.2,114.1c-0.6,0-1.1,0.3-1.6,0.8c-0.5,0.5-0.9,1.3-1.2,2.2h0.1c1.3,0,2.3-0.2,3-0.5
			s1-0.8,1-1.5c0-0.3-0.1-0.5-0.3-0.7C550.9,114.2,550.6,114.1,550.2,114.1z"/>
		<path fill="#FFFFFF" d="M554.2,118.6c0-1.3,0.2-2.5,0.6-3.9s0.9-2.4,1.6-3.2c0.7-0.8,1.4-1.3,2.2-1.6c0.4-0.1,1.1-0.3,2.2-0.5
			c1-0.2,1.8-0.3,2.3-0.4l0.2,1.2l-0.9,0.1c-1.5,0.2-2.6,0.5-3.2,0.7c-1.5,0.5-2.5,1.9-3.1,4.2l0,0c0.4-0.5,0.9-0.9,1.4-1.2
			c0.5-0.3,1.1-0.4,1.7-0.4c0.9,0,1.5,0.3,2,0.8c0.4,0.5,0.7,1.3,0.7,2.3c0,1.1-0.2,2.1-0.5,3s-0.9,1.5-1.5,2s-1.4,0.7-2.3,0.7
			c-1.1,0-1.9-0.3-2.4-1C554.5,120.8,554.2,119.9,554.2,118.6z M557.6,121.3c0.5,0,1-0.2,1.4-0.5c0.4-0.4,0.7-0.9,1-1.6
			c0.2-0.7,0.4-1.4,0.4-2.2c0-0.7-0.1-1.3-0.4-1.6c-0.2-0.3-0.6-0.5-1.1-0.5c-0.5,0-1.1,0.2-1.6,0.5c-0.6,0.3-1,0.8-1.4,1.4
			c-0.1,0.6-0.2,1.3-0.2,1.8C555.7,120.4,556.3,121.3,557.6,121.3z"/>
		<path fill="#FFFFFF" d="M566.9,122.5c-1,0-1.8-0.3-2.4-0.9c-0.6-0.6-0.9-1.5-0.9-2.5c0-1.1,0.2-2.1,0.6-3c0.4-1,1-1.7,1.7-2.3
			c0.7-0.5,1.5-0.8,2.3-0.8c0.9,0,1.5,0.2,1.9,0.6c0.4,0.4,0.7,0.9,0.7,1.6c0,1-0.5,1.8-1.4,2.4c-0.9,0.6-2.3,0.9-4,0.9H565l0,0.7
			c0,0.7,0.2,1.3,0.5,1.7c0.3,0.4,0.9,0.6,1.6,0.6c0.4,0,0.7-0.1,1.1-0.2c0.4-0.1,0.8-0.3,1.4-0.6v1.2c-0.5,0.2-1,0.4-1.4,0.5
			C567.8,122.4,567.4,122.5,566.9,122.5z M568.1,114.1c-0.6,0-1.1,0.3-1.6,0.8c-0.5,0.5-0.9,1.3-1.2,2.2h0.1c1.3,0,2.3-0.2,3-0.5
			s1-0.8,1-1.5c0-0.3-0.1-0.5-0.3-0.7C568.8,114.2,568.5,114.1,568.1,114.1z M566.2,110.7c0-0.3,0.1-0.5,0.2-0.7
			c0.2-0.2,0.4-0.3,0.6-0.3c0.4,0,0.7,0.2,0.7,0.7c0,0.3-0.1,0.5-0.2,0.7c-0.2,0.2-0.4,0.3-0.6,0.3c-0.2,0-0.4-0.1-0.5-0.2
			C566.3,111.1,566.2,110.9,566.2,110.7z M569.3,110.7c0-0.3,0.1-0.5,0.2-0.7c0.2-0.2,0.4-0.3,0.6-0.3c0.4,0,0.6,0.2,0.6,0.7
			c0,0.3-0.1,0.5-0.2,0.7c-0.2,0.2-0.4,0.3-0.6,0.3c-0.2,0-0.4-0.1-0.5-0.2C569.4,111.1,569.3,110.9,569.3,110.7z"/>
		<path fill="#FFFFFF" d="M575.1,113.1l-0.8,3.9h4.5l0.8-3.9h1.4l-2,9.3h-1.4l0.9-4.2h-4.5l-0.9,4.2h-1.4l2-9.3H575.1z"/>
		<path fill="#FFFFFF" d="M588.9,113.1h1.8l-4.6,4.6l3.2,4.7h-1.7l-3-4.6l-1,4.6h-1.4l2-9.3h1.4l-1,4.5L588.9,113.1z"/>
		<path fill="#FFFFFF" d="M595.3,112.9c0.5,0,1,0.1,1.4,0.4c0.4,0.3,0.7,0.7,0.9,1.2h0.1l0.6-1.5h1.1l-2,9.3h-1.1l0.2-1.8h-0.1
			c-1,1.3-2.1,1.9-3.2,1.9c-0.8,0-1.4-0.3-1.8-0.8s-0.7-1.3-0.7-2.3c0-1.2,0.2-2.3,0.6-3.3c0.4-1,1-1.8,1.7-2.4
			C593.6,113.2,594.4,112.9,595.3,112.9z M593.7,121.3c0.5,0,1.1-0.3,1.6-0.8c0.5-0.5,1-1.2,1.3-2s0.5-1.7,0.5-2.5
			c0-0.6-0.2-1-0.5-1.4c-0.3-0.3-0.7-0.5-1.2-0.5c-0.6,0-1.1,0.2-1.6,0.7s-0.9,1.1-1.2,2c-0.3,0.8-0.4,1.7-0.4,2.6
			c0,0.6,0.1,1.1,0.4,1.4C592.8,121.2,593.2,121.3,593.7,121.3z"/>
		<path fill="#FFFFFF" d="M603.7,110l-1.3,4.5h-0.9l0.6-4.5H603.7z M606.7,110l-1.3,4.5h-0.9l0.6-4.5H606.7z"/>
		<path fill="#FFFFFF" d="M614.6,113.1l-1.3,5.9c-0.1,0.5-0.2,0.9-0.2,1.2c0,0.8,0.4,1.2,1.2,1.2c0.5,0,1-0.2,1.5-0.5
			s0.9-0.8,1.3-1.5c0.4-0.6,0.6-1.4,0.8-2.3l0.8-4h1.4l-2,9.3h-1.2l0.2-1.7h-0.1c-0.6,0.7-1.1,1.2-1.6,1.5c-0.5,0.3-1,0.4-1.6,0.4
			c-0.7,0-1.3-0.2-1.7-0.6s-0.6-0.9-0.6-1.7c0-0.3,0.1-0.8,0.2-1.5l1.2-5.7H614.6z"/>
		<path fill="#FFFFFF" d="M624,116.9c1.6,0,2.5-0.5,2.5-1.6c0-0.4-0.1-0.6-0.4-0.8c-0.2-0.2-0.6-0.3-1.1-0.3c-0.4,0-0.7,0-1.1,0.1
			c-0.4,0.1-0.8,0.2-1.3,0.5l-0.4-1.1c0.5-0.2,1-0.4,1.5-0.5c0.5-0.1,1-0.2,1.5-0.2c0.9,0,1.5,0.2,2,0.6s0.7,0.9,0.7,1.6
			c0,0.6-0.2,1.1-0.6,1.5c-0.4,0.4-0.9,0.7-1.6,0.9v0c1,0.3,1.6,0.9,1.6,2c0,0.9-0.3,1.7-1,2.2c-0.7,0.5-1.6,0.8-2.8,0.8
			c-1,0-1.9-0.2-2.6-0.6v-1.3c0.4,0.2,0.8,0.4,1.3,0.6c0.5,0.1,1,0.2,1.4,0.2c0.7,0,1.3-0.2,1.7-0.5c0.4-0.3,0.7-0.8,0.7-1.3
			c0-0.5-0.1-0.9-0.4-1.1s-0.7-0.3-1.3-0.3h-1.3l0.3-1.2H624z"/>
		<path fill="#FFFFFF" d="M641,122.3l1.6-7.4c-0.1,0.2-0.4,0.8-1,1.7l-3.3,5.7h-1l-0.9-5.7c-0.1-0.6-0.2-1.2-0.2-1.7l-1.6,7.4h-1.2
			l2-9.3h1.6l1,6.1c0.1,0.8,0.2,1.4,0.2,1.7c0.2-0.4,0.5-1.1,1-1.9l3.5-6h1.7l-2,9.3H641z"/>
		<path fill="#FFFFFF" d="M650.1,112.9c0.5,0,1,0.1,1.4,0.4c0.4,0.3,0.7,0.7,0.9,1.2h0.1l0.6-1.5h1.1l-2,9.3h-1.1l0.2-1.8h-0.1
			c-1,1.3-2.1,1.9-3.2,1.9c-0.8,0-1.4-0.3-1.8-0.8s-0.7-1.3-0.7-2.3c0-1.2,0.2-2.3,0.6-3.3c0.4-1,1-1.8,1.7-2.4
			C648.5,113.2,649.3,112.9,650.1,112.9z M648.5,121.3c0.5,0,1.1-0.3,1.6-0.8c0.5-0.5,1-1.2,1.3-2s0.5-1.7,0.5-2.5
			c0-0.6-0.2-1-0.5-1.4c-0.3-0.3-0.7-0.5-1.2-0.5c-0.6,0-1.1,0.2-1.6,0.7s-0.9,1.1-1.2,2c-0.3,0.8-0.4,1.7-0.4,2.6
			c0,0.6,0.1,1.1,0.4,1.4C647.7,121.2,648,121.3,648.5,121.3z"/>
		<path fill="#FFFFFF" d="M661.3,122.3h-1.4l1.7-8.1c-0.2-0.1-0.4-0.1-0.7-0.1c-0.4,0-0.8,0.1-1.1,0.3c-0.3,0.2-0.5,0.5-0.8,0.9
			c-0.2,0.4-0.6,1.3-1,2.6c-0.5,1.4-0.9,2.3-1.2,2.9s-0.7,1-1.1,1.2c-0.4,0.3-0.9,0.4-1.4,0.4c-0.3,0-0.5,0-0.7-0.1v-1.2
			c0.2,0.1,0.3,0.1,0.6,0.1c0.4,0,0.7-0.1,0.9-0.3s0.5-0.6,0.8-1c0.2-0.5,0.5-1.2,0.9-2.3c0.5-1.5,0.9-2.4,1.3-3
			c0.3-0.5,0.7-0.9,1.2-1.2c0.5-0.2,1.1-0.4,1.8-0.4c0.7,0,1.4,0.1,2.1,0.3L661.3,122.3z"/>
		<path fill="#FFFFFF" d="M667.6,113.1l-0.9,4.1c0.7-0.1,1.3-0.2,1.8-0.2c1,0,1.7,0.2,2.1,0.6c0.5,0.4,0.7,1,0.7,1.8
			c0,1-0.3,1.7-0.9,2.3c-0.6,0.6-1.5,0.9-2.6,0.9c-1,0-1.7-0.2-2.2-0.7c-0.5-0.5-0.8-1.1-0.8-2c0-0.5,0.1-1.1,0.2-1.6l1.1-5.1H667.6
			z M668.2,118.1c-0.6,0-1.1,0.1-1.7,0.2c-0.1,0.6-0.2,1.1-0.2,1.4c0,0.5,0.1,0.9,0.4,1.2c0.3,0.3,0.7,0.4,1.3,0.4
			c0.6,0,1.2-0.2,1.5-0.5c0.4-0.3,0.5-0.8,0.5-1.3c0-0.5-0.1-0.8-0.4-1C669.3,118.2,668.9,118.1,668.2,118.1z M673.8,122.3h-1.4
			l2-9.3h1.4L673.8,122.3z"/>
		<path fill="#FFFFFF" d="M680.2,118.7l-2.9,3.7h-1.6l4-4.8l-2-4.5h1.4l1.5,3.5l2.8-3.5h1.6l-3.8,4.6l2.1,4.7h-1.4L680.2,118.7z"/>
		<path fill="#FFFFFF" d="M694.9,122.3l1.3-5.8c0.1-0.5,0.2-0.9,0.2-1.1c0-0.4-0.1-0.7-0.3-0.9c-0.2-0.2-0.5-0.3-0.9-0.3
			c-0.5,0-0.9,0.2-1.4,0.5c-0.4,0.3-0.8,0.8-1.2,1.4c-0.3,0.6-0.6,1.4-0.8,2.3l-0.9,4h-1.4l2-9.3h1.2l-0.2,1.7h0.1
			c0.5-0.7,1-1.2,1.5-1.4c0.5-0.3,1-0.4,1.5-0.4c0.6,0,1.1,0.2,1.5,0.5c0.3,0.4,0.5,0.9,0.6,1.5h0.1c0.5-0.7,1-1.2,1.5-1.6
			c0.5-0.3,1.1-0.5,1.7-0.5c0.7,0,1.3,0.2,1.7,0.6c0.4,0.4,0.6,0.9,0.6,1.7c0,0.4-0.1,0.9-0.2,1.5l-1.2,5.7h-1.4l1.3-5.8
			c0.1-0.6,0.2-1,0.2-1.2c0-0.3-0.1-0.6-0.3-0.8c-0.2-0.2-0.5-0.3-0.9-0.3c-0.5,0-0.9,0.2-1.4,0.5c-0.4,0.3-0.8,0.8-1.2,1.4
			s-0.6,1.3-0.8,2.1l-0.9,4.2H694.9z"/>
		<path fill="#FFFFFF" d="M708.7,122.5c-0.5,0-1-0.1-1.4-0.4c-0.4-0.3-0.7-0.7-1-1.2h-0.1l0,0.3c0,0.1,0,0.3-0.1,0.6s-0.4,1.8-1,4.7
			h-1.4l2.8-13.4h1.2l-0.2,1.8h0.1c1-1.3,2.1-1.9,3.1-1.9c0.8,0,1.4,0.3,1.8,0.8c0.4,0.5,0.7,1.3,0.7,2.3c0,1.2-0.2,2.3-0.6,3.3
			s-0.9,1.8-1.6,2.3C710.3,122.2,709.6,122.5,708.7,122.5z M710.3,114.1c-0.5,0-1.1,0.3-1.7,0.8c-0.6,0.5-1,1.2-1.3,2
			c-0.3,0.8-0.5,1.6-0.5,2.5c0,0.6,0.2,1.1,0.5,1.4s0.8,0.5,1.4,0.5c0.6,0,1.1-0.2,1.6-0.7s0.9-1.1,1.2-1.9c0.3-0.8,0.4-1.7,0.4-2.7
			C711.8,114.7,711.3,114.1,710.3,114.1z"/>
		<path fill="#FFFFFF" d="M719.5,112.9c0.5,0,1,0.1,1.4,0.4c0.4,0.3,0.7,0.7,0.9,1.2h0.1l0.6-1.5h1.1l-2,9.3h-1.1l0.2-1.8h-0.1
			c-1,1.3-2.1,1.9-3.2,1.9c-0.8,0-1.4-0.3-1.8-0.8s-0.7-1.3-0.7-2.3c0-1.2,0.2-2.3,0.6-3.3c0.4-1,1-1.8,1.7-2.4
			C717.9,113.2,718.6,112.9,719.5,112.9z M717.9,121.3c0.5,0,1.1-0.3,1.6-0.8c0.5-0.5,1-1.2,1.3-2s0.5-1.7,0.5-2.5
			c0-0.6-0.2-1-0.5-1.4c-0.3-0.3-0.7-0.5-1.2-0.5c-0.6,0-1.1,0.2-1.6,0.7s-0.9,1.1-1.2,2c-0.3,0.8-0.4,1.7-0.4,2.6
			c0,0.6,0.1,1.1,0.4,1.4C717,121.2,717.4,121.3,717.9,121.3z"/>
		<path fill="#FFFFFF" d="M732,122.3l1.6-7.4c-0.1,0.2-0.4,0.8-1,1.7l-3.3,5.7h-1l-0.9-5.7c-0.1-0.6-0.2-1.2-0.2-1.7l-1.6,7.4h-1.2
			l2-9.3h1.6l1,6.1c0.1,0.8,0.2,1.4,0.2,1.7c0.2-0.4,0.5-1.1,1-1.9l3.5-6h1.7l-2,9.3H732z"/>
		<path fill="#FFFFFF" d="M741.9,122.3l1.3-5.8c0.1-0.6,0.2-1,0.2-1.2c0-0.4-0.1-0.6-0.3-0.9c-0.2-0.2-0.5-0.3-1-0.3
			c-0.5,0-1,0.2-1.5,0.5c-0.5,0.3-0.9,0.8-1.3,1.4c-0.4,0.6-0.6,1.4-0.8,2.3l-0.9,4h-1.4l2-9.3h1.2l-0.2,1.7h0.1
			c0.5-0.7,1.1-1.2,1.6-1.5c0.5-0.3,1-0.4,1.6-0.4c0.7,0,1.3,0.2,1.7,0.6c0.4,0.4,0.6,0.9,0.6,1.6c0,0.4-0.1,1-0.2,1.5l-1.2,5.7
			H741.9z"/>
		<path fill="#FFFFFF" d="M752.5,122.3h-1.4l1.7-8.1c-0.2-0.1-0.4-0.1-0.7-0.1c-0.4,0-0.8,0.1-1.1,0.3c-0.3,0.2-0.5,0.5-0.8,0.9
			c-0.2,0.4-0.6,1.3-1,2.6c-0.5,1.4-0.9,2.3-1.2,2.9s-0.7,1-1.1,1.2c-0.4,0.3-0.9,0.4-1.4,0.4c-0.3,0-0.5,0-0.7-0.1v-1.2
			c0.2,0.1,0.3,0.1,0.6,0.1c0.4,0,0.7-0.1,0.9-0.3s0.5-0.6,0.8-1c0.2-0.5,0.5-1.2,0.9-2.3c0.5-1.5,0.9-2.4,1.3-3
			c0.3-0.5,0.7-0.9,1.2-1.2c0.5-0.2,1.1-0.4,1.8-0.4c0.7,0,1.4,0.1,2.1,0.3L752.5,122.3z"/>
		<path fill="#FFFFFF" d="M758.8,113.1l-1.3,5.9c-0.1,0.5-0.2,0.9-0.2,1.2c0,0.8,0.4,1.2,1.2,1.2c0.5,0,1-0.2,1.5-0.5
			s0.9-0.8,1.3-1.5c0.4-0.6,0.6-1.4,0.8-2.3l0.8-4h1.4l-2,9.3h-1.2l0.2-1.7h-0.1c-0.6,0.7-1.1,1.2-1.6,1.5c-0.5,0.3-1,0.4-1.6,0.4
			c-0.7,0-1.3-0.2-1.7-0.6s-0.6-0.9-0.6-1.7c0-0.3,0.1-0.8,0.2-1.5l1.2-5.7H758.8z"/>
		<path fill="#FFFFFF" d="M768.9,113.1l-0.8,3.9h4.5l0.8-3.9h1.4l-2,9.3h-1.4l0.9-4.2h-4.5l-0.9,4.2h-1.4l2-9.3H768.9z"/>
		<path fill="#FFFFFF" d="M780.8,112.9c1.1,0,1.9,0.3,2.5,0.9s0.9,1.5,0.9,2.6c0,1.1-0.2,2.1-0.6,3s-1,1.7-1.6,2.2s-1.5,0.8-2.3,0.8
			c-1.1,0-1.9-0.3-2.5-1c-0.6-0.6-0.9-1.5-0.9-2.6c0-1.1,0.2-2.1,0.6-3c0.4-0.9,1-1.7,1.7-2.2C779.2,113.2,780,112.9,780.8,112.9z
			 M782.8,116.3c0-0.6-0.2-1.2-0.5-1.6s-0.8-0.6-1.4-0.6c-0.6,0-1.2,0.2-1.7,0.6c-0.5,0.4-0.9,1-1.1,1.7c-0.3,0.7-0.4,1.6-0.4,2.5
			c0,0.7,0.2,1.3,0.5,1.7s0.9,0.6,1.5,0.6c0.6,0,1.1-0.2,1.6-0.6c0.5-0.4,0.8-1,1.1-1.8C782.7,118.2,782.8,117.3,782.8,116.3z"/>
		<path fill="#FFFFFF" d="M790.8,112.9c1,0,1.7,0.2,2.3,0.6c0.5,0.4,0.8,1,0.8,1.7c0,1.2-0.8,2-2.4,2.4v0c0.6,0.2,1.1,0.4,1.3,0.7
			c0.3,0.3,0.4,0.7,0.4,1.2c0,0.5-0.1,1-0.4,1.5c-0.3,0.4-0.7,0.8-1.3,1c-0.6,0.2-1.2,0.4-2,0.4c-1.2,0-2.1-0.3-2.7-1
			c-0.6-0.6-0.9-1.6-0.9-2.8c0-1.1,0.2-2.1,0.6-3c0.4-0.9,1-1.6,1.7-2C789,113.2,789.8,112.9,790.8,112.9z M787.4,118.3v0.4
			c0,1.7,0.8,2.6,2.3,2.6c0.7,0,1.3-0.1,1.7-0.4c0.4-0.3,0.6-0.7,0.6-1.2c0-0.5-0.2-0.8-0.5-1s-0.9-0.3-1.7-0.3H787.4z M790.8,114.1
			c-0.9,0-1.6,0.3-2.1,0.8s-1,1.3-1.2,2.2h1.9c1,0,1.7-0.2,2.3-0.5c0.5-0.3,0.8-0.7,0.8-1.3c0-0.4-0.1-0.7-0.4-0.9
			S791.3,114.1,790.8,114.1z"/>
	</g>
</g>
<g id="HATCH_82_">
	<polygon fill-rule="evenodd" clip-rule="evenodd" fill="none" stroke="#FFFFFF" stroke-miterlimit="10" points="706,299.3 
		768.4,237.3 917.6,237.3 917.6,261.4 763.3,261.4 706,299.3 	"/>
</g>
<g id="MTEXT_2_">
	<g>
		<path fill="#FFFFFF" d="M778.1,243.3c-1,0-1.9,0.3-2.6,0.8c-0.8,0.5-1.4,1.3-1.8,2.4c-0.5,1.1-0.7,2.2-0.7,3.4
			c0,1.1,0.3,1.9,0.8,2.5c0.5,0.6,1.3,0.9,2.3,0.9c0.8,0,1.7-0.2,2.7-0.5v1.3c-0.5,0.2-0.9,0.3-1.4,0.4c-0.4,0.1-1,0.1-1.6,0.1
			c-1.4,0-2.4-0.4-3.2-1.3c-0.8-0.8-1.2-2-1.2-3.4c0-1.5,0.3-2.8,0.9-4.1c0.6-1.3,1.4-2.2,2.4-2.9s2.1-1,3.4-1
			c1.1,0,2.1,0.2,2.9,0.7l-0.6,1.2C779.7,243.5,778.9,243.3,778.1,243.3z"/>
		<path fill="#FFFFFF" d="M787.6,245.3h1.8l-4.6,4.6l3.2,4.7h-1.7l-3-4.6l-1,4.6h-1.4l2-9.3h1.4l-1,4.5L787.6,245.3z"/>
		<path fill="#FFFFFF" d="M794,245.2c1.1,0,1.9,0.3,2.5,0.9s0.9,1.5,0.9,2.6c0,1.1-0.2,2.1-0.6,3s-1,1.7-1.6,2.2s-1.5,0.8-2.3,0.8
			c-1.1,0-1.9-0.3-2.5-1c-0.6-0.6-0.9-1.5-0.9-2.6c0-1.1,0.2-2.1,0.6-3c0.4-0.9,1-1.7,1.7-2.2C792.4,245.4,793.1,245.2,794,245.2z
			 M796,248.6c0-0.6-0.2-1.2-0.5-1.6s-0.8-0.6-1.4-0.6c-0.6,0-1.2,0.2-1.7,0.6c-0.5,0.4-0.9,1-1.1,1.7c-0.3,0.7-0.4,1.6-0.4,2.5
			c0,0.7,0.2,1.3,0.5,1.7s0.9,0.6,1.5,0.6c0.6,0,1.1-0.2,1.6-0.6c0.5-0.4,0.8-1,1.1-1.8C795.8,250.4,796,249.5,796,248.6z"/>
		<path fill="#FFFFFF" d="M802.9,254.7c-0.5,0-1-0.1-1.4-0.4c-0.4-0.3-0.7-0.7-1-1.2h-0.1l0,0.3c0,0.1,0,0.3-0.1,0.6s-0.4,1.8-1,4.7
			h-1.4l2.8-13.4h1.2l-0.2,1.8h0.1c1-1.3,2.1-1.9,3.1-1.9c0.8,0,1.4,0.3,1.8,0.8c0.4,0.5,0.7,1.3,0.7,2.3c0,1.2-0.2,2.3-0.6,3.3
			s-0.9,1.8-1.6,2.3C804.5,254.5,803.7,254.7,802.9,254.7z M804.4,246.3c-0.5,0-1.1,0.3-1.7,0.8c-0.6,0.5-1,1.2-1.3,2
			c-0.3,0.8-0.5,1.6-0.5,2.5c0,0.6,0.2,1.1,0.5,1.4s0.8,0.5,1.4,0.5c0.6,0,1.1-0.2,1.6-0.7s0.9-1.1,1.2-1.9c0.3-0.8,0.4-1.7,0.4-2.7
			C805.9,247,805.4,246.3,804.4,246.3z"/>
		<path fill="#FFFFFF" d="M813.7,245.2c1.1,0,1.9,0.3,2.5,0.9s0.9,1.5,0.9,2.6c0,1.1-0.2,2.1-0.6,3s-1,1.7-1.6,2.2s-1.5,0.8-2.3,0.8
			c-1.1,0-1.9-0.3-2.5-1c-0.6-0.6-0.9-1.5-0.9-2.6c0-1.1,0.2-2.1,0.6-3c0.4-0.9,1-1.7,1.7-2.2C812,245.4,812.8,245.2,813.7,245.2z
			 M815.7,248.6c0-0.6-0.2-1.2-0.5-1.6s-0.8-0.6-1.4-0.6c-0.6,0-1.2,0.2-1.7,0.6c-0.5,0.4-0.9,1-1.1,1.7c-0.3,0.7-0.4,1.6-0.4,2.5
			c0,0.7,0.2,1.3,0.5,1.7s0.9,0.6,1.5,0.6c0.6,0,1.1-0.2,1.6-0.6c0.5-0.4,0.8-1,1.1-1.8C815.5,250.4,815.7,249.5,815.7,248.6z"/>
		<path fill="#FFFFFF" d="M822.2,254.7c-1.1,0-1.9-0.3-2.5-0.9c-0.6-0.6-0.9-1.5-0.9-2.5c0-1.1,0.2-2.2,0.6-3.1c0.4-1,1-1.7,1.7-2.2
			s1.6-0.8,2.5-0.8c0.8,0,1.5,0.1,2.3,0.4l-0.4,1.2c-0.7-0.3-1.3-0.4-1.8-0.4c-0.6,0-1.2,0.2-1.7,0.6c-0.5,0.4-0.9,1-1.2,1.8
			c-0.3,0.8-0.4,1.6-0.4,2.5c0,0.7,0.2,1.3,0.6,1.7c0.4,0.4,0.9,0.6,1.5,0.6c0.4,0,0.8-0.1,1.1-0.2c0.4-0.1,0.7-0.2,1.1-0.4v1.2
			C823.8,254.6,823.1,254.7,822.2,254.7z"/>
		<path fill="#FFFFFF" d="M831.6,254.6l1.3-5.8c0.1-0.5,0.2-0.9,0.2-1.1c0-0.4-0.1-0.7-0.3-0.9c-0.2-0.2-0.5-0.3-0.9-0.3
			c-0.5,0-0.9,0.2-1.4,0.5c-0.4,0.3-0.8,0.8-1.2,1.4c-0.3,0.6-0.6,1.4-0.8,2.3l-0.9,4h-1.4l2-9.3h1.2l-0.2,1.7h0.1
			c0.5-0.7,1-1.2,1.5-1.4c0.5-0.3,1-0.4,1.5-0.4c0.6,0,1.1,0.2,1.5,0.5c0.3,0.4,0.5,0.9,0.6,1.5h0.1c0.5-0.7,1-1.2,1.5-1.6
			c0.5-0.3,1.1-0.5,1.7-0.5c0.7,0,1.3,0.2,1.7,0.6c0.4,0.4,0.6,0.9,0.6,1.7c0,0.4-0.1,0.9-0.2,1.5l-1.2,5.7H837l1.3-5.8
			c0.1-0.6,0.2-1,0.2-1.2c0-0.3-0.1-0.6-0.3-0.8c-0.2-0.2-0.5-0.3-0.9-0.3c-0.5,0-0.9,0.2-1.4,0.5c-0.4,0.3-0.8,0.8-1.2,1.4
			s-0.6,1.3-0.8,2.1l-0.9,4.2H831.6z"/>
		<path fill="#FFFFFF" d="M844.7,245.3l-0.8,3.9h4.5l0.8-3.9h1.4l-2,9.3h-1.4l0.9-4.2h-4.5l-0.9,4.2h-1.4l2-9.3H844.7z"/>
		<path fill="#FFFFFF" d="M856.5,245.1c0.5,0,1,0.1,1.4,0.4c0.4,0.3,0.7,0.7,0.9,1.2h0.1l0.6-1.5h1.1l-2,9.3h-1.1l0.2-1.8h-0.1
			c-1,1.3-2.1,1.9-3.2,1.9c-0.8,0-1.4-0.3-1.8-0.8s-0.7-1.3-0.7-2.3c0-1.2,0.2-2.3,0.6-3.3c0.4-1,1-1.8,1.7-2.4
			C854.9,245.4,855.7,245.1,856.5,245.1z M854.9,253.6c0.5,0,1.1-0.3,1.6-0.8c0.5-0.5,1-1.2,1.3-2s0.5-1.7,0.5-2.5
			c0-0.6-0.2-1-0.5-1.4c-0.3-0.3-0.7-0.5-1.2-0.5c-0.6,0-1.1,0.2-1.6,0.7s-0.9,1.1-1.2,2c-0.3,0.8-0.4,1.7-0.4,2.6
			c0,0.6,0.1,1.1,0.4,1.4C854.1,253.4,854.5,253.6,854.9,253.6z"/>
		<path fill="#FFFFFF" d="M865.7,250.9c-0.5,0-0.8,0.1-1.1,0.3c-0.3,0.2-0.6,0.6-0.8,1.2c-0.3,0.7-0.6,1.2-0.8,1.5
			c-0.2,0.3-0.5,0.4-0.7,0.6c-0.3,0.1-0.6,0.2-1,0.2c-0.3,0-0.5,0-0.7-0.1v-1.1c0.1,0,0.3,0.1,0.4,0.1c0.3,0,0.5-0.1,0.7-0.3
			c0.2-0.2,0.4-0.6,0.8-1.2c0.2-0.4,0.4-0.7,0.6-1s0.6-0.5,1-0.7c-0.5-0.2-0.9-0.4-1.2-0.8c-0.3-0.4-0.4-0.8-0.4-1.4
			c0-0.9,0.3-1.6,1-2.1c0.6-0.5,1.5-0.8,2.6-0.8h3.5l-2,9.3h-1.4l0.8-3.7H865.7z M865.7,246.6c-0.6,0-1.1,0.1-1.5,0.4
			c-0.3,0.3-0.5,0.7-0.5,1.2c0,0.9,0.6,1.4,1.8,1.4h1.6l0.7-3.1H865.7z"/>
		<path fill="#FFFFFF" d="M883.6,246.6c0,1.4-0.2,2.8-0.7,4.1c-0.5,1.3-1.1,2.3-1.9,3c-0.8,0.7-1.7,1-2.7,1c-0.9,0-1.7-0.3-2.2-0.9
			c-0.5-0.6-0.8-1.4-0.8-2.5c0-1,0.2-2,0.6-2.9c0.4-0.9,0.9-1.6,1.6-2.1c0.7-0.5,1.4-0.7,2.2-0.7c0.6,0,1.1,0.1,1.4,0.4
			c0.4,0.2,0.7,0.6,1,1.1h0.1l0-0.3v-0.2c0-1.4-0.2-2.5-0.6-3.2c-0.4-0.7-1-1-1.8-1c-0.6,0-1.2,0.1-1.8,0.4l-0.4-1
			c0.3-0.2,0.7-0.3,1.1-0.4c0.4-0.1,0.8-0.2,1.2-0.2c1.2,0,2.1,0.4,2.7,1.3C883.3,243.4,883.6,244.8,883.6,246.6z M878.5,253.5
			c0.8,0,1.5-0.4,2.1-1.3c0.6-0.9,1-2,1.3-3.5c-0.2-0.6-0.4-1.1-0.8-1.5c-0.4-0.4-0.8-0.5-1.3-0.5c-0.5,0-1,0.2-1.5,0.6
			c-0.5,0.4-0.8,1-1.1,1.7c-0.3,0.7-0.4,1.5-0.4,2.3c0,0.7,0.1,1.2,0.4,1.6C877.5,253.4,878,253.5,878.5,253.5z"/>
		<path fill="#FFFFFF" d="M885.1,245.3h1.4l0.6,4.6c0.1,0.4,0.1,1,0.2,1.7c0.1,0.8,0.1,1.4,0.1,1.8h0.1c0.2-0.5,0.4-1.1,0.7-1.7
			s0.5-1.1,0.7-1.3l2.7-5.1h1.5l-5.9,10.8c-0.5,1-1,1.6-1.6,2c-0.5,0.4-1.1,0.6-1.8,0.6c-0.4,0-0.8-0.1-1.2-0.2v-1.1
			c0.4,0.1,0.7,0.2,1.1,0.2c0.5,0,0.9-0.1,1.2-0.4c0.3-0.3,0.6-0.7,1-1.3l0.6-1.1L885.1,245.3z"/>
		<path fill="#FFFFFF" d="M894,245.8c0.7-0.2,1.2-0.4,1.7-0.5c0.5-0.1,0.9-0.1,1.4-0.1c0.8,0,1.5,0.2,1.9,0.5
			c0.4,0.4,0.7,0.9,0.7,1.6c0,0.6-0.2,1.1-0.6,1.6c-0.4,0.5-1.2,0.9-2.2,1.3c-0.9,0.3-1.5,0.6-1.8,0.8s-0.5,0.4-0.6,0.6
			c-0.1,0.2-0.2,0.5-0.2,0.8c0,0.4,0.1,0.7,0.4,0.9c0.3,0.2,0.7,0.3,1.3,0.3c0.8,0,1.6-0.2,2.6-0.7v1.3c-0.9,0.4-1.8,0.6-2.8,0.6
			c-0.9,0-1.7-0.2-2.2-0.6c-0.5-0.4-0.8-1-0.8-1.7c0-0.5,0.1-0.9,0.3-1.2s0.5-0.7,0.9-1c0.4-0.3,1-0.6,1.8-0.9
			c0.7-0.3,1.3-0.5,1.6-0.7s0.5-0.4,0.7-0.6s0.2-0.4,0.2-0.7c0-0.7-0.4-1-1.3-1c-0.7,0-1.6,0.2-2.6,0.6L894,245.8z"/>
		<path fill="#FFFFFF" d="M905.5,245.1c0.5,0,1,0.1,1.4,0.4c0.4,0.3,0.7,0.7,0.9,1.2h0.1l0.6-1.5h1.1l-2,9.3h-1.1l0.2-1.8h-0.1
			c-1,1.3-2.1,1.9-3.2,1.9c-0.8,0-1.4-0.3-1.8-0.8s-0.7-1.3-0.7-2.3c0-1.2,0.2-2.3,0.6-3.3c0.4-1,1-1.8,1.7-2.4
			C903.9,245.4,904.7,245.1,905.5,245.1z M903.9,253.6c0.5,0,1.1-0.3,1.6-0.8c0.5-0.5,1-1.2,1.3-2s0.5-1.7,0.5-2.5
			c0-0.6-0.2-1-0.5-1.4c-0.3-0.3-0.7-0.5-1.2-0.5c-0.6,0-1.1,0.2-1.6,0.7s-0.9,1.1-1.2,2c-0.3,0.8-0.4,1.7-0.4,2.6
			c0,0.6,0.1,1.1,0.4,1.4C903.1,253.4,903.5,253.6,903.9,253.6z"/>
	</g>
</g>
<g id="HATCH_83_">
	<polygon fill-rule="evenodd" clip-rule="evenodd" fill="none" stroke="#FFFFFF" stroke-miterlimit="10" points="641.3,250.9 
		734.4,170.9 923.7,170.9 923.7,195 728.8,195 641.3,250.9 	"/>
</g>
<g id="MTEXT_3_">
	<g>
		<path fill="#FFFFFF" d="M742.5,188.2H741l2.3-11.1h-5.6l-2.3,11.1H734l2.6-12.3h8.5L742.5,188.2z"/>
		<path fill="#FFFFFF" d="M751.8,188.2h-1.4l1.7-8.1c-0.2-0.1-0.4-0.1-0.7-0.1c-0.4,0-0.8,0.1-1.1,0.3c-0.3,0.2-0.5,0.5-0.8,0.9
			c-0.2,0.4-0.6,1.3-1,2.6c-0.5,1.4-0.9,2.3-1.2,2.9s-0.7,1-1.1,1.2c-0.4,0.3-0.9,0.4-1.4,0.4c-0.3,0-0.5,0-0.7-0.1V187
			c0.2,0.1,0.3,0.1,0.6,0.1c0.4,0,0.7-0.1,0.9-0.3s0.5-0.6,0.8-1c0.2-0.5,0.5-1.2,0.9-2.3c0.5-1.5,0.9-2.4,1.3-3
			c0.3-0.5,0.7-0.9,1.2-1.2c0.5-0.2,1.1-0.4,1.8-0.4c0.7,0,1.4,0.1,2.1,0.3L751.8,188.2z"/>
		<path fill="#FFFFFF" d="M758.1,178.9l-1.3,5.9c-0.1,0.5-0.2,0.9-0.2,1.2c0,0.8,0.4,1.2,1.2,1.2c0.5,0,1-0.2,1.5-0.5
			s0.9-0.8,1.3-1.5c0.4-0.6,0.6-1.4,0.8-2.3l0.8-4h1.4l-2,9.3h-1.2l0.2-1.7h-0.1c-0.6,0.7-1.1,1.2-1.6,1.5c-0.5,0.3-1,0.4-1.6,0.4
			c-0.7,0-1.3-0.2-1.7-0.6s-0.6-0.9-0.6-1.7c0-0.3,0.1-0.8,0.2-1.5l1.2-5.7H758.1z"/>
		<path fill="#FFFFFF" d="M770.1,188.2l1.3-5.8c0.1-0.5,0.2-0.9,0.2-1.1c0-0.4-0.1-0.7-0.3-0.9c-0.2-0.2-0.5-0.3-0.9-0.3
			c-0.5,0-0.9,0.2-1.4,0.5c-0.4,0.3-0.8,0.8-1.2,1.4c-0.3,0.6-0.6,1.4-0.8,2.3l-0.9,4h-1.4l2-9.3h1.2l-0.2,1.7h0.1
			c0.5-0.7,1-1.2,1.5-1.4c0.5-0.3,1-0.4,1.5-0.4c0.6,0,1.1,0.2,1.5,0.5c0.3,0.4,0.5,0.9,0.6,1.5h0.1c0.5-0.7,1-1.2,1.5-1.6
			c0.5-0.3,1.1-0.5,1.7-0.5c0.7,0,1.3,0.2,1.7,0.6c0.4,0.4,0.6,0.9,0.6,1.7c0,0.4-0.1,0.9-0.2,1.5l-1.2,5.7h-1.4l1.3-5.8
			c0.1-0.6,0.2-1,0.2-1.2c0-0.3-0.1-0.6-0.3-0.8c-0.2-0.2-0.5-0.3-0.9-0.3c-0.5,0-0.9,0.2-1.4,0.5c-0.4,0.3-0.8,0.8-1.2,1.4
			s-0.6,1.3-0.8,2.1l-0.9,4.2H770.1z"/>
		<path fill="#FFFFFF" d="M784.8,178.8c1.1,0,1.9,0.3,2.5,0.9s0.9,1.5,0.9,2.6c0,1.1-0.2,2.1-0.6,3s-1,1.7-1.6,2.2s-1.5,0.8-2.3,0.8
			c-1.1,0-1.9-0.3-2.5-1c-0.6-0.6-0.9-1.5-0.9-2.6c0-1.1,0.2-2.1,0.6-3c0.4-0.9,1-1.7,1.7-2.2C783.2,179.1,783.9,178.8,784.8,178.8z
			 M786.8,182.2c0-0.6-0.2-1.2-0.5-1.6s-0.8-0.6-1.4-0.6c-0.6,0-1.2,0.2-1.7,0.6c-0.5,0.4-0.9,1-1.1,1.7c-0.3,0.7-0.4,1.6-0.4,2.5
			c0,0.7,0.2,1.3,0.5,1.7s0.9,0.6,1.5,0.6c0.6,0,1.1-0.2,1.6-0.6c0.5-0.4,0.8-1,1.1-1.8C786.6,184,786.8,183.2,786.8,182.2z"/>
		<path fill="#FFFFFF" d="M792.5,178.9c-0.2,1-0.4,1.8-0.5,2.3c-0.1,0.5-0.2,0.9-0.2,1.2c0,0.5,0.1,0.8,0.3,1
			c0.2,0.2,0.5,0.3,0.9,0.3c0.8,0,1.5-0.3,2.1-1c0.6-0.7,1-1.6,1.3-2.9l0.2-1h1.4l-2,9.3h-1.5l0.5-2.6c0.2-0.7,0.3-1.5,0.6-2.2h-0.1
			c-0.8,1.1-1.8,1.6-3,1.6c-1.6,0-2.3-0.8-2.3-2.3c0-0.3,0.1-0.8,0.2-1.5l0.5-2.1H792.5z"/>
		<path fill="#FFFFFF" d="M802.5,178.9l-0.8,3.9h4.5l0.8-3.9h1.4l-2,9.3h-1.4l0.9-4.2h-4.5l-0.9,4.2h-1.4l2-9.3H802.5z"/>
		<path fill="#FFFFFF" d="M814.4,178.8c1.1,0,1.9,0.3,2.5,0.9s0.9,1.5,0.9,2.6c0,1.1-0.2,2.1-0.6,3s-1,1.7-1.6,2.2s-1.5,0.8-2.3,0.8
			c-1.1,0-1.9-0.3-2.5-1c-0.6-0.6-0.9-1.5-0.9-2.6c0-1.1,0.2-2.1,0.6-3c0.4-0.9,1-1.7,1.7-2.2C812.8,179.1,813.6,178.8,814.4,178.8z
			 M816.4,182.2c0-0.6-0.2-1.2-0.5-1.6s-0.8-0.6-1.4-0.6c-0.6,0-1.2,0.2-1.7,0.6c-0.5,0.4-0.9,1-1.1,1.7c-0.3,0.7-0.4,1.6-0.4,2.5
			c0,0.7,0.2,1.3,0.5,1.7s0.9,0.6,1.5,0.6c0.6,0,1.1-0.2,1.6-0.6c0.5-0.4,0.8-1,1.1-1.8C816.3,184,816.4,183.2,816.4,182.2z"/>
		<path fill="#FFFFFF" d="M822.9,188.4c-1,0-1.8-0.3-2.4-0.9c-0.6-0.6-0.9-1.5-0.9-2.5c0-1.1,0.2-2.1,0.6-3c0.4-1,1-1.7,1.7-2.3
			c0.7-0.5,1.5-0.8,2.3-0.8c0.9,0,1.5,0.2,1.9,0.6c0.4,0.4,0.7,0.9,0.7,1.6c0,1-0.5,1.8-1.4,2.4c-0.9,0.6-2.3,0.9-4,0.9H821l0,0.7
			c0,0.7,0.2,1.3,0.5,1.7c0.3,0.4,0.9,0.6,1.6,0.6c0.4,0,0.7-0.1,1.1-0.2c0.4-0.1,0.8-0.3,1.4-0.6v1.2c-0.5,0.2-1,0.4-1.4,0.5
			C823.8,188.3,823.3,188.4,822.9,188.4z M824,180c-0.6,0-1.1,0.3-1.6,0.8c-0.5,0.5-0.9,1.3-1.2,2.2h0.1c1.3,0,2.3-0.2,3-0.5
			s1-0.8,1-1.5c0-0.3-0.1-0.5-0.3-0.7C824.8,180.1,824.5,180,824,180z"/>
		<path fill="#FFFFFF" d="M837.9,188.2l1.3-5.8c0.1-0.6,0.2-1,0.2-1.2c0-0.4-0.1-0.6-0.3-0.9c-0.2-0.2-0.5-0.3-1-0.3
			c-0.5,0-1,0.2-1.5,0.5c-0.5,0.3-0.9,0.8-1.3,1.4c-0.4,0.6-0.6,1.4-0.8,2.3l-0.9,4h-1.4l2-9.3h1.2l-0.2,1.7h0.1
			c0.5-0.7,1.1-1.2,1.6-1.5c0.5-0.3,1-0.4,1.6-0.4c0.7,0,1.3,0.2,1.7,0.6c0.4,0.4,0.6,0.9,0.6,1.6c0,0.4-0.1,1-0.2,1.5l-1.2,5.7
			H837.9z"/>
		<path fill="#FFFFFF" d="M847.1,178.8c1.1,0,1.9,0.3,2.5,0.9s0.9,1.5,0.9,2.6c0,1.1-0.2,2.1-0.6,3s-1,1.7-1.6,2.2s-1.5,0.8-2.3,0.8
			c-1.1,0-1.9-0.3-2.5-1c-0.6-0.6-0.9-1.5-0.9-2.6c0-1.1,0.2-2.1,0.6-3c0.4-0.9,1-1.7,1.7-2.2C845.5,179.1,846.3,178.8,847.1,178.8z
			 M849.1,182.2c0-0.6-0.2-1.2-0.5-1.6s-0.8-0.6-1.4-0.6c-0.6,0-1.2,0.2-1.7,0.6c-0.5,0.4-0.9,1-1.1,1.7c-0.3,0.7-0.4,1.6-0.4,2.5
			c0,0.7,0.2,1.3,0.5,1.7s0.9,0.6,1.5,0.6c0.6,0,1.1-0.2,1.6-0.6c0.5-0.4,0.8-1,1.1-1.8C849,184,849.1,183.2,849.1,182.2z"/>
		<path fill="#FFFFFF" d="M858.7,178.9h1.8l-4.6,4.6l3.2,4.7h-1.7l-3-4.6l-1,4.6h-1.4l2-9.3h1.4l-1,4.5L858.7,178.9z"/>
		<path fill="#FFFFFF" d="M864.3,188.4c-0.5,0-1-0.1-1.4-0.4c-0.4-0.3-0.7-0.7-1-1.2h-0.1l0,0.3c0,0.1,0,0.3-0.1,0.6s-0.4,1.8-1,4.7
			h-1.4l2.8-13.4h1.2l-0.2,1.8h0.1c1-1.3,2.1-1.9,3.1-1.9c0.8,0,1.4,0.3,1.8,0.8c0.4,0.5,0.7,1.3,0.7,2.3c0,1.2-0.2,2.3-0.6,3.3
			s-0.9,1.8-1.6,2.3C865.9,188.1,865.1,188.4,864.3,188.4z M865.8,180c-0.5,0-1.1,0.3-1.7,0.8c-0.6,0.5-1,1.2-1.3,2
			c-0.3,0.8-0.5,1.6-0.5,2.5c0,0.6,0.2,1.1,0.5,1.4s0.8,0.5,1.4,0.5c0.6,0,1.1-0.2,1.6-0.7s0.9-1.1,1.2-1.9c0.3-0.8,0.4-1.7,0.4-2.7
			C867.3,180.6,866.8,180,865.8,180z"/>
		<path fill="#FFFFFF" d="M873.4,178.9l-0.9,4.1c0.7-0.1,1.3-0.2,1.8-0.2c1,0,1.7,0.2,2.1,0.6c0.5,0.4,0.7,1,0.7,1.8
			c0,1-0.3,1.7-0.9,2.3c-0.6,0.6-1.5,0.9-2.6,0.9c-1,0-1.7-0.2-2.2-0.7c-0.5-0.5-0.8-1.1-0.8-2c0-0.5,0.1-1.1,0.2-1.6l1.1-5.1H873.4
			z M874,184c-0.6,0-1.1,0.1-1.7,0.2c-0.1,0.6-0.2,1.1-0.2,1.4c0,0.5,0.1,0.9,0.4,1.2c0.3,0.3,0.7,0.4,1.3,0.4
			c0.6,0,1.2-0.2,1.5-0.5c0.4-0.3,0.5-0.8,0.5-1.3c0-0.5-0.1-0.8-0.4-1C875.2,184.1,874.7,184,874,184z M879.6,188.2h-1.4l2-9.3h1.4
			L879.6,188.2z"/>
		<path fill="#FFFFFF" d="M888,188.2l1.3-5.8c0.1-0.5,0.2-0.9,0.2-1.1c0-0.4-0.1-0.7-0.3-0.9c-0.2-0.2-0.5-0.3-0.9-0.3
			c-0.5,0-0.9,0.2-1.4,0.5c-0.4,0.3-0.8,0.8-1.2,1.4c-0.3,0.6-0.6,1.4-0.8,2.3l-0.9,4h-1.4l2-9.3h1.2l-0.2,1.7h0.1
			c0.5-0.7,1-1.2,1.5-1.4c0.5-0.3,1-0.4,1.5-0.4c0.6,0,1.1,0.2,1.5,0.5c0.3,0.4,0.5,0.9,0.6,1.5h0.1c0.5-0.7,1-1.2,1.5-1.6
			c0.5-0.3,1.1-0.5,1.7-0.5c0.7,0,1.3,0.2,1.7,0.6c0.4,0.4,0.6,0.9,0.6,1.7c0,0.4-0.1,0.9-0.2,1.5l-1.2,5.7h-1.4l1.3-5.8
			c0.1-0.6,0.2-1,0.2-1.2c0-0.3-0.1-0.6-0.3-0.8c-0.2-0.2-0.5-0.3-0.9-0.3c-0.5,0-0.9,0.2-1.4,0.5c-0.4,0.3-0.8,0.8-1.2,1.4
			s-0.6,1.3-0.8,2.1l-0.9,4.2H888z"/>
		<path fill="#FFFFFF" d="M901,178.9l-1.3,5.9c-0.1,0.5-0.2,0.9-0.2,1.2c0,0.8,0.4,1.2,1.2,1.2c0.5,0,1-0.2,1.5-0.5s0.9-0.8,1.3-1.5
			c0.4-0.6,0.6-1.4,0.8-2.3l0.8-4h1.4l-2,9.3h-1.2l0.2-1.7h-0.1c-0.6,0.7-1.1,1.2-1.6,1.5c-0.5,0.3-1,0.4-1.6,0.4
			c-0.7,0-1.3-0.2-1.7-0.6s-0.6-0.9-0.6-1.7c0-0.3,0.1-0.8,0.2-1.5l1.2-5.7H901z"/>
		<path fill="#FFFFFF" d="M911.3,188.4c-1,0-1.8-0.3-2.4-0.9c-0.6-0.6-0.9-1.5-0.9-2.5c0-1.1,0.2-2.1,0.6-3c0.4-1,1-1.7,1.7-2.3
			c0.7-0.5,1.5-0.8,2.3-0.8c0.9,0,1.5,0.2,1.9,0.6c0.4,0.4,0.7,0.9,0.7,1.6c0,1-0.5,1.8-1.4,2.4c-0.9,0.6-2.3,0.9-4,0.9h-0.3l0,0.7
			c0,0.7,0.2,1.3,0.5,1.7c0.3,0.4,0.9,0.6,1.6,0.6c0.4,0,0.7-0.1,1.1-0.2c0.4-0.1,0.8-0.3,1.4-0.6v1.2c-0.5,0.2-1,0.4-1.4,0.5
			C912.3,188.3,911.8,188.4,911.3,188.4z M912.5,180c-0.6,0-1.1,0.3-1.6,0.8c-0.5,0.5-0.9,1.3-1.2,2.2h0.1c1.3,0,2.3-0.2,3-0.5
			s1-0.8,1-1.5c0-0.3-0.1-0.5-0.3-0.7C913.2,180.1,912.9,180,912.5,180z"/>
	</g>
</g>
<g id="HATCH_84_">
	<polygon fill-rule="evenodd" clip-rule="evenodd" fill="none" stroke="#FFFFFF" stroke-miterlimit="10" points="631.1,337.4 
		747.1,376.9 938.2,376.9 938.2,401 753.4,401 631.1,337.4 	"/>
</g>
<g id="HATCH_85_">
	<polygon fill-rule="evenodd" clip-rule="evenodd" fill="none" stroke="#FFFFFF" stroke-miterlimit="10" points="417.5,451.9 
		468.1,481.8 566.6,481.8 566.6,505.9 477.3,505.9 417.5,451.9 	"/>
</g>
<g id="MTEXT_4_">
	<g>
		<path fill="#FFFFFF" d="M483.2,499.1h-1.5l2.3-11.1h-5.6l-2.3,11.1h-1.4l2.6-12.3h8.5L483.2,499.1z"/>
		<path fill="#FFFFFF" d="M489.6,489.8l-1.3,5.9c-0.1,0.5-0.2,0.9-0.2,1.2c0,0.8,0.4,1.2,1.2,1.2c0.5,0,1-0.2,1.5-0.5
			c0.5-0.3,0.9-0.8,1.3-1.5c0.4-0.6,0.6-1.4,0.8-2.3l0.8-4h1.4l-2,9.3h-1.2l0.2-1.7h-0.1c-0.6,0.7-1.1,1.2-1.6,1.5
			c-0.5,0.3-1,0.4-1.6,0.4c-0.7,0-1.3-0.2-1.7-0.6c-0.4-0.4-0.6-1-0.6-1.7c0-0.3,0.1-0.8,0.2-1.5l1.2-5.7H489.6z"/>
		<path fill="#FFFFFF" d="M501.6,499.1l1.3-5.8c0.1-0.5,0.2-0.9,0.2-1.1c0-0.4-0.1-0.7-0.3-0.9s-0.5-0.3-0.9-0.3
			c-0.5,0-0.9,0.2-1.4,0.5c-0.4,0.3-0.8,0.8-1.2,1.4c-0.3,0.6-0.6,1.4-0.8,2.3l-0.9,4h-1.4l2-9.3h1.2l-0.2,1.7h0.1
			c0.5-0.7,1-1.2,1.5-1.4c0.5-0.3,1-0.4,1.5-0.4c0.6,0,1.1,0.2,1.5,0.5c0.3,0.4,0.5,0.9,0.6,1.5h0.1c0.5-0.7,1-1.2,1.5-1.6
			s1.1-0.5,1.7-0.5c0.7,0,1.3,0.2,1.7,0.6c0.4,0.4,0.6,0.9,0.6,1.7c0,0.4-0.1,0.9-0.2,1.5l-1.2,5.7H507l1.3-5.8
			c0.1-0.6,0.2-1,0.2-1.2c0-0.3-0.1-0.6-0.3-0.8c-0.2-0.2-0.5-0.3-0.9-0.3c-0.5,0-0.9,0.2-1.4,0.5c-0.4,0.3-0.8,0.8-1.2,1.4
			c-0.3,0.6-0.6,1.3-0.8,2.1l-0.9,4.2H501.6z"/>
		<path fill="#FFFFFF" d="M519.6,499.2c-1.1,0-1.9-0.3-2.5-0.9s-0.9-1.5-0.9-2.5c0-1.1,0.2-2.2,0.6-3.1c0.4-1,1-1.7,1.7-2.2
			s1.6-0.8,2.5-0.8c0.8,0,1.5,0.1,2.3,0.4l-0.4,1.2c-0.7-0.3-1.3-0.4-1.8-0.4c-0.6,0-1.2,0.2-1.7,0.6c-0.5,0.4-0.9,1-1.2,1.8
			c-0.3,0.8-0.4,1.6-0.4,2.5c0,0.7,0.2,1.3,0.6,1.7c0.4,0.4,0.9,0.6,1.5,0.6c0.4,0,0.8-0.1,1.1-0.2c0.4-0.1,0.7-0.2,1.1-0.4v1.2
			C521.2,499.1,520.4,499.2,519.6,499.2z"/>
		<path fill="#FFFFFF" d="M529,499.1l1.3-5.8c0.1-0.5,0.2-0.9,0.2-1.1c0-0.4-0.1-0.7-0.3-0.9s-0.5-0.3-0.9-0.3
			c-0.5,0-0.9,0.2-1.4,0.5c-0.4,0.3-0.8,0.8-1.2,1.4c-0.3,0.6-0.6,1.4-0.8,2.3l-0.9,4h-1.4l2-9.3h1.2l-0.2,1.7h0.1
			c0.5-0.7,1-1.2,1.5-1.4c0.5-0.3,1-0.4,1.5-0.4c0.6,0,1.1,0.2,1.5,0.5c0.3,0.4,0.5,0.9,0.6,1.5h0.1c0.5-0.7,1-1.2,1.5-1.6
			s1.1-0.5,1.7-0.5c0.7,0,1.3,0.2,1.7,0.6c0.4,0.4,0.6,0.9,0.6,1.7c0,0.4-0.1,0.9-0.2,1.5l-1.2,5.7h-1.4l1.3-5.8
			c0.1-0.6,0.2-1,0.2-1.2c0-0.3-0.1-0.6-0.3-0.8c-0.2-0.2-0.5-0.3-0.9-0.3c-0.5,0-0.9,0.2-1.4,0.5c-0.4,0.3-0.8,0.8-1.2,1.4
			c-0.3,0.6-0.6,1.3-0.8,2.1l-0.9,4.2H529z"/>
		<path fill="#FFFFFF" d="M543.6,489.7c1.1,0,1.9,0.3,2.5,0.9c0.6,0.6,0.9,1.5,0.9,2.6c0,1.1-0.2,2.1-0.6,3c-0.4,0.9-1,1.7-1.6,2.2
			c-0.7,0.5-1.5,0.8-2.3,0.8c-1.1,0-1.9-0.3-2.5-1c-0.6-0.6-0.9-1.5-0.9-2.6c0-1.1,0.2-2.1,0.6-3c0.4-0.9,1-1.7,1.7-2.2
			C542,490,542.7,489.7,543.6,489.7z M545.6,493.1c0-0.6-0.2-1.2-0.5-1.6s-0.8-0.6-1.4-0.6c-0.6,0-1.2,0.2-1.7,0.6
			c-0.5,0.4-0.9,1-1.1,1.7s-0.4,1.6-0.4,2.5c0,0.7,0.2,1.3,0.5,1.7s0.9,0.6,1.5,0.6c0.6,0,1.1-0.2,1.6-0.6c0.5-0.4,0.8-1,1.1-1.8
			S545.6,494,545.6,493.1z"/>
		<path fill="#FFFFFF" d="M554,499.1l1.3-5.8c0.1-0.6,0.2-1,0.2-1.2c0-0.4-0.1-0.6-0.3-0.9c-0.2-0.2-0.5-0.3-1-0.3
			c-0.5,0-1,0.2-1.5,0.5c-0.5,0.3-0.9,0.8-1.3,1.4c-0.4,0.6-0.6,1.4-0.8,2.3l-0.9,4h-1.4l2-9.3h1.2l-0.2,1.7h0.1
			c0.5-0.7,1.1-1.2,1.6-1.5c0.5-0.3,1-0.4,1.6-0.4c0.7,0,1.3,0.2,1.7,0.6c0.4,0.4,0.6,0.9,0.6,1.6c0,0.4-0.1,1-0.2,1.5l-1.2,5.7H554
			z"/>
	</g>
</g>
<g id="MTEXT_5_">
	<g>
		<path fill="#FFFFFF" d="M761.4,387.1c2.5,0,3.7,1,3.7,3c0,1.3-0.4,2.3-1.3,3s-2,1.1-3.6,1.1h-3.1l2.6-12.3h6.2l-0.3,1.3H761
			l-0.9,4H761.4z M760.5,392.9c2.1,0,3.1-0.9,3.1-2.7c0-0.6-0.2-1.1-0.5-1.4c-0.4-0.3-0.9-0.5-1.7-0.5h-1.6l-1,4.6H760.5z"/>
		<path fill="#FFFFFF" d="M770.3,394.3c-1,0-1.8-0.3-2.4-0.9c-0.6-0.6-0.9-1.5-0.9-2.5c0-1.1,0.2-2.1,0.6-3c0.4-1,1-1.7,1.7-2.3
			s1.5-0.8,2.3-0.8c0.9,0,1.5,0.2,1.9,0.6s0.7,0.9,0.7,1.6c0,1-0.5,1.8-1.4,2.4c-0.9,0.6-2.3,0.9-4,0.9h-0.3l0,0.7
			c0,0.7,0.2,1.3,0.5,1.7c0.3,0.4,0.9,0.6,1.6,0.6c0.4,0,0.7-0.1,1.1-0.2c0.4-0.1,0.8-0.3,1.4-0.6v1.2c-0.5,0.2-1,0.4-1.4,0.5
			C771.3,394.3,770.8,394.3,770.3,394.3z M771.5,385.9c-0.6,0-1.1,0.3-1.6,0.8c-0.5,0.5-0.9,1.3-1.2,2.2h0.1c1.3,0,2.3-0.2,3-0.5
			s1-0.8,1-1.5c0-0.3-0.1-0.5-0.3-0.7S772,385.9,771.5,385.9z"/>
		<path fill="#FFFFFF" d="M780.6,394.2l1.3-5.8c0.1-0.5,0.2-0.9,0.2-1.1c0-0.4-0.1-0.7-0.3-0.9s-0.5-0.3-0.9-0.3
			c-0.5,0-0.9,0.2-1.4,0.5c-0.4,0.3-0.8,0.8-1.2,1.4c-0.3,0.6-0.6,1.4-0.8,2.3l-0.9,4h-1.4l2-9.3h1.2l-0.2,1.7h0.1
			c0.5-0.7,1-1.2,1.5-1.4c0.5-0.3,1-0.4,1.5-0.4c0.6,0,1.1,0.2,1.5,0.5c0.3,0.4,0.5,0.9,0.6,1.5h0.1c0.5-0.7,1-1.2,1.5-1.6
			s1.1-0.5,1.7-0.5c0.7,0,1.3,0.2,1.7,0.6c0.4,0.4,0.6,0.9,0.6,1.7c0,0.4-0.1,0.9-0.2,1.5l-1.2,5.7H786l1.3-5.8
			c0.1-0.6,0.2-1,0.2-1.2c0-0.3-0.1-0.6-0.3-0.8c-0.2-0.2-0.5-0.3-0.9-0.3c-0.5,0-0.9,0.2-1.4,0.5c-0.4,0.3-0.8,0.8-1.2,1.4
			c-0.3,0.6-0.6,1.3-0.8,2.1l-0.9,4.2H780.6z"/>
		<path fill="#FFFFFF" d="M795.2,384.8c1.1,0,1.9,0.3,2.5,0.9c0.6,0.6,0.9,1.5,0.9,2.6c0,1.1-0.2,2.1-0.6,3c-0.4,0.9-1,1.7-1.6,2.2
			c-0.7,0.5-1.5,0.8-2.3,0.8c-1.1,0-1.9-0.3-2.5-1c-0.6-0.6-0.9-1.5-0.9-2.6c0-1.1,0.2-2.1,0.6-3c0.4-0.9,1-1.7,1.7-2.2
			C793.6,385,794.4,384.8,795.2,384.8z M797.2,388.2c0-0.6-0.2-1.2-0.5-1.6s-0.8-0.6-1.4-0.6c-0.6,0-1.2,0.2-1.7,0.6
			c-0.5,0.4-0.9,1-1.1,1.7s-0.4,1.6-0.4,2.5c0,0.7,0.2,1.3,0.5,1.7s0.9,0.6,1.5,0.6c0.6,0,1.1-0.2,1.6-0.6c0.5-0.4,0.8-1,1.1-1.8
			S797.2,389.1,797.2,388.2z"/>
		<path fill="#FFFFFF" d="M803.4,384.9l-0.8,3.9h4.5l0.8-3.9h1.4l-2,9.3h-1.4l0.9-4.2h-4.5l-0.9,4.2H800l2-9.3H803.4z"/>
		<path fill="#FFFFFF" d="M813.7,384.9l-0.8,3.9h4.5l0.8-3.9h1.4l-2,9.3h-1.4l0.9-4.2h-4.5l-0.9,4.2h-1.4l2-9.3H813.7z"/>
		<path fill="#FFFFFF" d="M825.6,384.8c1.1,0,1.9,0.3,2.5,0.9c0.6,0.6,0.9,1.5,0.9,2.6c0,1.1-0.2,2.1-0.6,3c-0.4,0.9-1,1.7-1.6,2.2
			c-0.7,0.5-1.5,0.8-2.3,0.8c-1.1,0-1.9-0.3-2.5-1c-0.6-0.6-0.9-1.5-0.9-2.6c0-1.1,0.2-2.1,0.6-3c0.4-0.9,1-1.7,1.7-2.2
			C824,385,824.8,384.8,825.6,384.8z M827.6,388.2c0-0.6-0.2-1.2-0.5-1.6s-0.8-0.6-1.4-0.6c-0.6,0-1.2,0.2-1.7,0.6
			c-0.5,0.4-0.9,1-1.1,1.7s-0.4,1.6-0.4,2.5c0,0.7,0.2,1.3,0.5,1.7s0.9,0.6,1.5,0.6c0.6,0,1.1-0.2,1.6-0.6c0.5-0.4,0.8-1,1.1-1.8
			S827.6,389.1,827.6,388.2z"/>
		<path fill="#FFFFFF" d="M834.1,394.3c-1,0-1.8-0.3-2.4-0.9c-0.6-0.6-0.9-1.5-0.9-2.5c0-1.1,0.2-2.1,0.6-3c0.4-1,1-1.7,1.7-2.3
			s1.5-0.8,2.3-0.8c0.9,0,1.5,0.2,1.9,0.6s0.7,0.9,0.7,1.6c0,1-0.5,1.8-1.4,2.4c-0.9,0.6-2.3,0.9-4,0.9h-0.3l0,0.7
			c0,0.7,0.2,1.3,0.5,1.7c0.3,0.4,0.9,0.6,1.6,0.6c0.4,0,0.7-0.1,1.1-0.2c0.4-0.1,0.8-0.3,1.4-0.6v1.2c-0.5,0.2-1,0.4-1.4,0.5
			C835,394.3,834.6,394.3,834.1,394.3z M835.2,385.9c-0.6,0-1.1,0.3-1.6,0.8c-0.5,0.5-0.9,1.3-1.2,2.2h0.1c1.3,0,2.3-0.2,3-0.5
			s1-0.8,1-1.5c0-0.3-0.1-0.5-0.3-0.7S835.7,385.9,835.2,385.9z"/>
		<path fill="#FFFFFF" d="M849.1,394.2l1.3-5.8c0.1-0.6,0.2-1,0.2-1.2c0-0.4-0.1-0.6-0.3-0.9c-0.2-0.2-0.5-0.3-1-0.3
			c-0.5,0-1,0.2-1.5,0.5c-0.5,0.3-0.9,0.8-1.3,1.4c-0.4,0.6-0.6,1.4-0.8,2.3l-0.9,4h-1.4l2-9.3h1.2l-0.2,1.7h0.1
			c0.5-0.7,1.1-1.2,1.6-1.5c0.5-0.3,1-0.4,1.6-0.4c0.7,0,1.3,0.2,1.7,0.6c0.4,0.4,0.6,0.9,0.6,1.6c0,0.4-0.1,1-0.2,1.5l-1.2,5.7
			H849.1z"/>
		<path fill="#FFFFFF" d="M858.3,384.8c1.1,0,1.9,0.3,2.5,0.9c0.6,0.6,0.9,1.5,0.9,2.6c0,1.1-0.2,2.1-0.6,3c-0.4,0.9-1,1.7-1.6,2.2
			c-0.7,0.5-1.5,0.8-2.3,0.8c-1.1,0-1.9-0.3-2.5-1c-0.6-0.6-0.9-1.5-0.9-2.6c0-1.1,0.2-2.1,0.6-3c0.4-0.9,1-1.7,1.7-2.2
			C856.7,385,857.5,384.8,858.3,384.8z M860.3,388.2c0-0.6-0.2-1.2-0.5-1.6s-0.8-0.6-1.4-0.6c-0.6,0-1.2,0.2-1.7,0.6
			c-0.5,0.4-0.9,1-1.1,1.7s-0.4,1.6-0.4,2.5c0,0.7,0.2,1.3,0.5,1.7s0.9,0.6,1.5,0.6c0.6,0,1.1-0.2,1.6-0.6c0.5-0.4,0.8-1,1.1-1.8
			S860.3,389.1,860.3,388.2z"/>
		<path fill="#FFFFFF" d="M869.9,384.9h1.8l-4.6,4.6l3.2,4.7h-1.7l-3-4.6l-1,4.6h-1.4l2-9.3h1.4l-1,4.5L869.9,384.9z"/>
		<path fill="#FFFFFF" d="M875.5,394.3c-0.5,0-1-0.1-1.4-0.4s-0.7-0.7-1-1.2H873l0,0.3c0,0.1,0,0.3-0.1,0.6s-0.4,1.8-1,4.7h-1.4
			l2.8-13.4h1.2l-0.2,1.8h0.1c1-1.3,2.1-1.9,3.1-1.9c0.8,0,1.4,0.3,1.8,0.8c0.4,0.5,0.7,1.3,0.7,2.3c0,1.2-0.2,2.3-0.6,3.3
			c-0.4,1-0.9,1.8-1.6,2.3C877.1,394.1,876.3,394.3,875.5,394.3z M877,385.9c-0.5,0-1.1,0.3-1.7,0.8c-0.6,0.5-1,1.2-1.3,2
			c-0.3,0.8-0.5,1.6-0.5,2.5c0,0.6,0.2,1.1,0.5,1.4c0.3,0.3,0.8,0.5,1.4,0.5c0.6,0,1.1-0.2,1.6-0.7s0.9-1.1,1.2-1.9
			c0.3-0.8,0.4-1.7,0.4-2.7C878.5,386.6,878,385.9,877,385.9z"/>
		<path fill="#FFFFFF" d="M884.7,384.9l-0.9,4.1c0.7-0.1,1.3-0.2,1.8-0.2c1,0,1.7,0.2,2.1,0.6c0.5,0.4,0.7,1,0.7,1.8
			c0,1-0.3,1.7-0.9,2.3c-0.6,0.6-1.5,0.9-2.6,0.9c-1,0-1.7-0.2-2.2-0.7c-0.5-0.5-0.8-1.1-0.8-2c0-0.5,0.1-1.1,0.2-1.6l1.1-5.1H884.7
			z M885.3,389.9c-0.6,0-1.1,0.1-1.7,0.2c-0.1,0.6-0.2,1.1-0.2,1.4c0,0.5,0.1,1,0.4,1.2c0.3,0.3,0.7,0.4,1.3,0.4
			c0.6,0,1.2-0.2,1.5-0.5c0.4-0.3,0.5-0.8,0.5-1.3c0-0.5-0.1-0.8-0.4-1C886.4,390,885.9,389.9,885.3,389.9z M890.8,394.2h-1.4l2-9.3
			h1.4L890.8,394.2z"/>
		<path fill="#FFFFFF" d="M899.2,394.2l1.3-5.8c0.1-0.5,0.2-0.9,0.2-1.1c0-0.4-0.1-0.7-0.3-0.9s-0.5-0.3-0.9-0.3
			c-0.5,0-0.9,0.2-1.4,0.5c-0.4,0.3-0.8,0.8-1.2,1.4c-0.3,0.6-0.6,1.4-0.8,2.3l-0.9,4h-1.4l2-9.3h1.2l-0.2,1.7h0.1
			c0.5-0.7,1-1.2,1.5-1.4c0.5-0.3,1-0.4,1.5-0.4c0.6,0,1.1,0.2,1.5,0.5c0.3,0.4,0.5,0.9,0.6,1.5h0.1c0.5-0.7,1-1.2,1.5-1.6
			s1.1-0.5,1.7-0.5c0.7,0,1.3,0.2,1.7,0.6c0.4,0.4,0.6,0.9,0.6,1.7c0,0.4-0.1,0.9-0.2,1.5l-1.2,5.7h-1.4l1.3-5.8
			c0.1-0.6,0.2-1,0.2-1.2c0-0.3-0.1-0.6-0.3-0.8c-0.2-0.2-0.5-0.3-0.9-0.3c-0.5,0-0.9,0.2-1.4,0.5c-0.4,0.3-0.8,0.8-1.2,1.4
			c-0.3,0.6-0.6,1.3-0.8,2.1l-0.9,4.2H899.2z"/>
		<path fill="#FFFFFF" d="M912.2,384.9l-1.3,5.9c-0.1,0.5-0.2,0.9-0.2,1.2c0,0.8,0.4,1.2,1.2,1.2c0.5,0,1-0.2,1.5-0.5
			c0.5-0.3,0.9-0.8,1.3-1.5c0.4-0.6,0.6-1.4,0.8-2.3l0.8-4h1.4l-2,9.3h-1.2l0.2-1.7h-0.1c-0.6,0.7-1.1,1.2-1.6,1.5
			c-0.5,0.3-1,0.4-1.6,0.4c-0.7,0-1.3-0.2-1.7-0.6c-0.4-0.4-0.6-1-0.6-1.7c0-0.3,0.1-0.8,0.2-1.5l1.2-5.7H912.2z"/>
		<path fill="#FFFFFF" d="M922.5,394.3c-1,0-1.8-0.3-2.4-0.9c-0.6-0.6-0.9-1.5-0.9-2.5c0-1.1,0.2-2.1,0.6-3c0.4-1,1-1.7,1.7-2.3
			s1.5-0.8,2.3-0.8c0.9,0,1.5,0.2,1.9,0.6s0.7,0.9,0.7,1.6c0,1-0.5,1.8-1.4,2.4c-0.9,0.6-2.3,0.9-4,0.9h-0.3l0,0.7
			c0,0.7,0.2,1.3,0.5,1.7c0.3,0.4,0.9,0.6,1.6,0.6c0.4,0,0.7-0.1,1.1-0.2c0.4-0.1,0.8-0.3,1.4-0.6v1.2c-0.5,0.2-1,0.4-1.4,0.5
			C923.5,394.3,923,394.3,922.5,394.3z M923.7,385.9c-0.6,0-1.1,0.3-1.6,0.8c-0.5,0.5-0.9,1.3-1.2,2.2h0.1c1.3,0,2.3-0.2,3-0.5
			s1-0.8,1-1.5c0-0.3-0.1-0.5-0.3-0.7S924.1,385.9,923.7,385.9z"/>
	</g>
</g>
<g id="HATCH_86_">
	<polygon fill-rule="evenodd" clip-rule="evenodd" fill="none" stroke="#FFFFFF" stroke-miterlimit="10" points="11.1,163.4 
		195.4,163.4 265.2,302.9 191.5,187.5 11.2,187.5 11.1,163.4 	"/>
</g>
<g id="MTEXT_6_">
	<g>
		<path fill="#FFFFFF" d="M25.7,181.8h-1.5l2.3-11.1H21l-2.3,11.1h-1.4l2.6-12.3h8.5L25.7,181.8z"/>
		<path fill="#FFFFFF" d="M32.9,181.9c-0.5,0-1-0.1-1.4-0.4c-0.4-0.3-0.7-0.7-1-1.2h-0.1l0,0.3c0,0.1,0,0.3-0.1,0.6
			c0,0.3-0.4,1.8-1,4.7h-1.4l2.8-13.4h1.2l-0.2,1.8h0.1c1-1.3,2.1-1.9,3.1-1.9c0.8,0,1.4,0.3,1.8,0.8c0.4,0.5,0.7,1.3,0.7,2.3
			c0,1.2-0.2,2.3-0.6,3.3s-0.9,1.8-1.6,2.3C34.5,181.6,33.7,181.9,32.9,181.9z M34.4,173.5c-0.5,0-1.1,0.3-1.7,0.8
			c-0.6,0.5-1,1.2-1.3,2S31,178,31,178.8c0,0.6,0.2,1.1,0.5,1.4c0.3,0.3,0.8,0.5,1.4,0.5c0.6,0,1.1-0.2,1.6-0.7
			c0.5-0.5,0.9-1.1,1.2-1.9c0.3-0.8,0.4-1.7,0.4-2.7C35.9,174.2,35.4,173.5,34.4,173.5z"/>
		<path fill="#FFFFFF" d="M42.4,181.9c-1,0-1.8-0.3-2.4-0.9c-0.6-0.6-0.9-1.5-0.9-2.5c0-1.1,0.2-2.1,0.6-3c0.4-1,1-1.7,1.7-2.3
			c0.7-0.5,1.5-0.8,2.3-0.8c0.9,0,1.5,0.2,1.9,0.6c0.4,0.4,0.6,0.9,0.6,1.6c0,1-0.5,1.8-1.4,2.4c-0.9,0.6-2.3,0.9-4,0.9h-0.3l0,0.7
			c0,0.7,0.2,1.3,0.5,1.7s0.9,0.6,1.6,0.6c0.4,0,0.7-0.1,1.1-0.2c0.4-0.1,0.8-0.3,1.4-0.6v1.2c-0.5,0.2-1,0.4-1.4,0.5
			C43.3,181.9,42.9,181.9,42.4,181.9z M43.6,173.5c-0.6,0-1.1,0.3-1.6,0.8c-0.5,0.5-0.9,1.3-1.2,2.2h0.1c1.3,0,2.3-0.2,3-0.5
			c0.7-0.3,1-0.8,1-1.5c0-0.3-0.1-0.5-0.3-0.7C44.3,173.6,44,173.5,43.6,173.5z"/>
		<path fill="#FFFFFF" d="M52.9,181.8l1.2-5.8c0.1-0.6,0.2-1,0.2-1.2c0-0.4-0.1-0.6-0.3-0.9c-0.2-0.2-0.5-0.3-1-0.3
			c-0.5,0-1,0.2-1.5,0.5c-0.5,0.3-0.9,0.8-1.3,1.4c-0.4,0.6-0.6,1.4-0.8,2.3l-0.9,4h-1.4l2-9.3h1.2l-0.2,1.7h0.1
			c0.5-0.7,1.1-1.2,1.6-1.5c0.5-0.3,1-0.4,1.6-0.4c0.7,0,1.3,0.2,1.7,0.6c0.4,0.4,0.6,0.9,0.6,1.6c0,0.4-0.1,1-0.2,1.5l-1.2,5.7
			H52.9z"/>
		<path fill="#FFFFFF" d="M61.6,178.1c-0.5,0-0.8,0.1-1.1,0.3c-0.3,0.2-0.6,0.6-0.8,1.2c-0.3,0.7-0.6,1.2-0.8,1.5
			c-0.2,0.3-0.5,0.4-0.7,0.6c-0.3,0.1-0.6,0.2-1,0.2c-0.3,0-0.5,0-0.7-0.1v-1.1c0.1,0,0.3,0.1,0.4,0.1c0.3,0,0.5-0.1,0.7-0.3
			c0.2-0.2,0.4-0.6,0.8-1.2c0.2-0.4,0.4-0.7,0.6-1s0.6-0.5,0.9-0.7c-0.5-0.2-0.9-0.4-1.2-0.8c-0.3-0.4-0.4-0.8-0.4-1.4
			c0-0.9,0.3-1.6,1-2.1c0.6-0.5,1.5-0.8,2.6-0.8h3.5l-2,9.3H62l0.8-3.7H61.6z M61.6,173.8c-0.6,0-1.1,0.1-1.5,0.4
			c-0.3,0.3-0.5,0.7-0.5,1.2c0,0.9,0.6,1.4,1.8,1.4H63l0.7-3.1H61.6z"/>
		<path fill="#FFFFFF" d="M71.7,181.8l1.2-5.8c0.1-0.5,0.2-0.9,0.2-1.1c0-0.4-0.1-0.7-0.3-0.9c-0.2-0.2-0.5-0.3-0.9-0.3
			c-0.5,0-0.9,0.2-1.4,0.5c-0.4,0.3-0.8,0.8-1.2,1.4c-0.3,0.6-0.6,1.4-0.8,2.3l-0.9,4h-1.4l2-9.3h1.2l-0.2,1.7h0.1
			c0.5-0.7,1-1.2,1.5-1.4s1-0.4,1.5-0.4c0.6,0,1.1,0.2,1.5,0.5s0.5,0.9,0.6,1.5h0.1c0.5-0.7,1-1.2,1.5-1.6c0.5-0.3,1.1-0.5,1.7-0.5
			c0.7,0,1.3,0.2,1.7,0.6c0.4,0.4,0.6,0.9,0.6,1.7c0,0.4-0.1,0.9-0.2,1.5l-1.2,5.7h-1.4l1.2-5.8c0.1-0.6,0.2-1,0.2-1.2
			c0-0.3-0.1-0.6-0.3-0.8s-0.5-0.3-0.9-0.3c-0.5,0-0.9,0.2-1.4,0.5c-0.4,0.3-0.8,0.8-1.2,1.4c-0.3,0.6-0.6,1.3-0.8,2.1l-0.9,4.2
			H71.7z"/>
		<path fill="#FFFFFF" d="M85.2,181.9c-1.1,0-1.9-0.3-2.5-0.9c-0.6-0.6-0.9-1.5-0.9-2.5c0-1.1,0.2-2.2,0.6-3.1s1-1.7,1.7-2.2
			s1.6-0.8,2.5-0.8c0.8,0,1.5,0.1,2.3,0.4l-0.4,1.2c-0.7-0.3-1.3-0.4-1.8-0.4c-0.6,0-1.2,0.2-1.7,0.6c-0.5,0.4-0.9,1-1.2,1.8
			c-0.3,0.8-0.4,1.6-0.4,2.5c0,0.7,0.2,1.3,0.6,1.7c0.4,0.4,0.9,0.6,1.5,0.6c0.4,0,0.8-0.1,1.1-0.2c0.4-0.1,0.7-0.2,1.1-0.4v1.2
			C86.8,181.7,86.1,181.9,85.2,181.9z"/>
		<path fill="#FFFFFF" d="M94.6,181.8l1.2-5.8c0.1-0.5,0.2-0.9,0.2-1.1c0-0.4-0.1-0.7-0.3-0.9c-0.2-0.2-0.5-0.3-0.9-0.3
			c-0.5,0-0.9,0.2-1.4,0.5c-0.4,0.3-0.8,0.8-1.2,1.4c-0.3,0.6-0.6,1.4-0.8,2.3l-0.9,4h-1.4l2-9.3h1.2l-0.2,1.7h0.1
			c0.5-0.7,1-1.2,1.5-1.4s1-0.4,1.5-0.4c0.6,0,1.1,0.2,1.5,0.5s0.5,0.9,0.6,1.5h0.1c0.5-0.7,1-1.2,1.5-1.6c0.5-0.3,1.1-0.5,1.7-0.5
			c0.7,0,1.3,0.2,1.7,0.6c0.4,0.4,0.6,0.9,0.6,1.7c0,0.4-0.1,0.9-0.2,1.5l-1.2,5.7H100l1.2-5.8c0.1-0.6,0.2-1,0.2-1.2
			c0-0.3-0.1-0.6-0.3-0.8s-0.5-0.3-0.9-0.3c-0.5,0-0.9,0.2-1.4,0.5c-0.4,0.3-0.8,0.8-1.2,1.4c-0.3,0.6-0.6,1.3-0.8,2.1l-0.9,4.2
			H94.6z"/>
		<path fill="#FFFFFF" d="M109.5,172.3c1,0,1.7,0.2,2.3,0.6c0.5,0.4,0.8,1,0.8,1.7c0,1.2-0.8,2-2.4,2.4v0c0.6,0.2,1.1,0.4,1.3,0.7
			s0.4,0.7,0.4,1.2c0,0.5-0.1,1-0.4,1.5c-0.3,0.4-0.7,0.8-1.3,1c-0.6,0.2-1.2,0.4-2,0.4c-1.2,0-2.1-0.3-2.7-1
			c-0.6-0.6-0.9-1.6-0.9-2.8c0-1.1,0.2-2.1,0.6-3c0.4-0.9,1-1.6,1.7-2C107.7,172.6,108.6,172.3,109.5,172.3z M106.1,177.7v0.4
			c0,1.7,0.8,2.6,2.3,2.6c0.7,0,1.2-0.1,1.7-0.4s0.6-0.7,0.6-1.2c0-0.5-0.2-0.8-0.5-1s-0.9-0.3-1.7-0.3H106.1z M109.5,173.6
			c-0.9,0-1.6,0.3-2.1,0.8c-0.6,0.5-1,1.3-1.2,2.2h1.9c1,0,1.7-0.2,2.3-0.5c0.5-0.3,0.8-0.7,0.8-1.3c0-0.4-0.1-0.7-0.4-0.9
			S110.1,173.6,109.5,173.6z"/>
		<path fill="#FFFFFF" d="M116.9,172.5l-1.3,5.9c-0.1,0.5-0.2,0.9-0.2,1.2c0,0.8,0.4,1.2,1.2,1.2c0.5,0,1-0.2,1.5-0.5
			s0.9-0.8,1.3-1.5c0.4-0.6,0.6-1.4,0.8-2.3l0.8-4h1.4l-2,9.3h-1.2l0.2-1.7h-0.1c-0.6,0.7-1.1,1.2-1.6,1.5c-0.5,0.3-1,0.4-1.6,0.4
			c-0.7,0-1.3-0.2-1.7-0.6c-0.4-0.4-0.6-0.9-0.6-1.7c0-0.3,0.1-0.8,0.2-1.5l1.2-5.7H116.9z"/>
		<path fill="#FFFFFF" d="M127.2,181.9c-1,0-1.8-0.3-2.4-0.9c-0.6-0.6-0.9-1.5-0.9-2.5c0-1.1,0.2-2.1,0.6-3c0.4-1,1-1.7,1.7-2.3
			c0.7-0.5,1.5-0.8,2.3-0.8c0.9,0,1.5,0.2,1.9,0.6c0.4,0.4,0.6,0.9,0.6,1.6c0,1-0.5,1.8-1.4,2.4c-0.9,0.6-2.3,0.9-4,0.9h-0.3l0,0.7
			c0,0.7,0.2,1.3,0.5,1.7s0.9,0.6,1.6,0.6c0.4,0,0.7-0.1,1.1-0.2c0.4-0.1,0.8-0.3,1.4-0.6v1.2c-0.5,0.2-1,0.4-1.4,0.5
			C128.2,181.9,127.7,181.9,127.2,181.9z M128.4,173.5c-0.6,0-1.1,0.3-1.6,0.8c-0.5,0.5-0.9,1.3-1.2,2.2h0.1c1.3,0,2.3-0.2,3-0.5
			c0.7-0.3,1-0.8,1-1.5c0-0.3-0.1-0.5-0.3-0.7C129.2,173.6,128.9,173.5,128.4,173.5z"/>
		<path fill="#FFFFFF" d="M140.2,169.4l-1.3,4.5H138l0.6-4.5H140.2z M143.1,169.4l-1.3,4.5h-0.9l0.6-4.5H143.1z"/>
		<path fill="#FFFFFF" d="M147.8,174.7c2.5,0,3.7,1,3.7,3c0,1.3-0.4,2.3-1.2,3c-0.8,0.7-2,1.1-3.6,1.1h-3.1l2.6-12.3h6.2l-0.3,1.3
			h-4.7l-0.9,4H147.8z M146.9,180.5c2.1,0,3.1-0.9,3.1-2.7c0-0.6-0.2-1.1-0.5-1.4c-0.4-0.3-0.9-0.5-1.7-0.5h-1.6l-1,4.6H146.9z"/>
		<path fill="#FFFFFF" d="M153.4,172.5h1.4l0.6,4.6c0.1,0.4,0.1,1,0.2,1.7c0.1,0.8,0.1,1.4,0.1,1.8h0.1c0.2-0.5,0.4-1.1,0.7-1.7
			s0.5-1.1,0.7-1.3l2.7-5.1h1.5l-5.9,10.8c-0.5,1-1,1.6-1.6,2c-0.5,0.4-1.1,0.6-1.8,0.6c-0.4,0-0.8-0.1-1.2-0.2v-1.1
			c0.4,0.1,0.7,0.2,1.1,0.2c0.5,0,0.9-0.1,1.2-0.4c0.3-0.3,0.6-0.7,1-1.3l0.6-1.1L153.4,172.5z"/>
		<path fill="#FFFFFF" d="M162.2,173c0.7-0.2,1.2-0.4,1.7-0.5c0.5-0.1,0.9-0.1,1.4-0.1c0.8,0,1.5,0.2,1.9,0.5
			c0.4,0.4,0.7,0.9,0.7,1.6c0,0.6-0.2,1.1-0.6,1.6c-0.4,0.5-1.2,0.9-2.2,1.3c-0.9,0.3-1.5,0.6-1.8,0.8c-0.3,0.2-0.5,0.4-0.6,0.6
			c-0.1,0.2-0.2,0.5-0.2,0.8c0,0.4,0.1,0.7,0.4,0.9c0.3,0.2,0.7,0.3,1.3,0.3c0.8,0,1.6-0.2,2.6-0.7v1.3c-0.9,0.4-1.8,0.6-2.8,0.6
			c-0.9,0-1.7-0.2-2.2-0.6c-0.5-0.4-0.8-1-0.8-1.7c0-0.5,0.1-0.9,0.3-1.2s0.5-0.7,0.9-1c0.4-0.3,1-0.6,1.8-0.9
			c0.7-0.3,1.3-0.5,1.6-0.7c0.3-0.2,0.5-0.4,0.7-0.6s0.2-0.4,0.2-0.7c0-0.7-0.4-1-1.3-1c-0.7,0-1.6,0.2-2.6,0.6L162.2,173z"/>
		<path fill="#FFFFFF" d="M173.9,172.4c1.1,0,1.9,0.3,2.5,0.9s0.9,1.5,0.9,2.6c0,1.1-0.2,2.1-0.6,3s-1,1.7-1.6,2.2s-1.5,0.8-2.3,0.8
			c-1.1,0-1.9-0.3-2.5-1s-0.9-1.5-0.9-2.6c0-1.1,0.2-2.1,0.6-3c0.4-0.9,1-1.7,1.7-2.2C172.2,172.6,173,172.4,173.9,172.4z
			 M175.8,175.8c0-0.6-0.2-1.2-0.5-1.6c-0.4-0.4-0.8-0.6-1.4-0.6c-0.6,0-1.2,0.2-1.7,0.6c-0.5,0.4-0.9,1-1.1,1.7
			c-0.3,0.7-0.4,1.6-0.4,2.5c0,0.7,0.2,1.3,0.5,1.7s0.9,0.6,1.5,0.6c0.6,0,1.1-0.2,1.6-0.6c0.5-0.4,0.8-1,1.1-1.8
			C175.7,177.6,175.8,176.7,175.8,175.8z"/>
		<path fill="#FFFFFF" d="M182.7,181.9c-0.5,0-1-0.1-1.4-0.4c-0.4-0.3-0.7-0.7-1-1.2h-0.1l0,0.3c0,0.1,0,0.3-0.1,0.6
			c0,0.3-0.4,1.8-1,4.7h-1.4l2.8-13.4h1.2l-0.2,1.8h0.1c1-1.3,2.1-1.9,3.1-1.9c0.8,0,1.4,0.3,1.8,0.8c0.4,0.5,0.7,1.3,0.7,2.3
			c0,1.2-0.2,2.3-0.6,3.3s-0.9,1.8-1.6,2.3C184.4,181.6,183.6,181.9,182.7,181.9z M184.3,173.5c-0.5,0-1.1,0.3-1.7,0.8
			c-0.6,0.5-1,1.2-1.3,2s-0.5,1.6-0.5,2.5c0,0.6,0.2,1.1,0.5,1.4c0.3,0.3,0.8,0.5,1.4,0.5c0.6,0,1.1-0.2,1.6-0.7
			c0.5-0.5,0.9-1.1,1.2-1.9c0.3-0.8,0.4-1.7,0.4-2.7C185.8,174.2,185.3,173.5,184.3,173.5z"/>
		<path fill="#FFFFFF" d="M192.2,169.4l-1.3,4.5H190l0.6-4.5H192.2z M195.1,169.4l-1.3,4.5h-0.9l0.6-4.5H195.1z"/>
	</g>
</g>
<g id="HATCH_87_">
	<polygon fill-rule="evenodd" clip-rule="evenodd" fill="none" stroke="#FFFFFF" stroke-miterlimit="10" points="334,414.7 
		390.2,414.7 407.7,426 390.2,437.2 334,437.2 334,414.7 	"/>
</g>
<g id="MTEXT_7_">
	<g>
		<path fill="#FFFFFF" d="M343,420.8c-1,0-1.9,0.3-2.6,0.8c-0.8,0.5-1.4,1.3-1.8,2.4c-0.5,1.1-0.7,2.2-0.7,3.4
			c0,1.1,0.3,1.9,0.8,2.5c0.5,0.6,1.3,0.9,2.3,0.9c0.8,0,1.7-0.2,2.7-0.5v1.3c-0.5,0.2-0.9,0.3-1.4,0.4c-0.4,0.1-1,0.1-1.6,0.1
			c-1.4,0-2.4-0.4-3.2-1.3c-0.8-0.8-1.2-2-1.2-3.4c0-1.5,0.3-2.8,0.9-4.1c0.6-1.3,1.4-2.2,2.4-2.9c1-0.7,2.1-1,3.4-1
			c1.1,0,2.1,0.2,2.9,0.7l-0.6,1.2C344.6,421,343.8,420.8,343,420.8z"/>
		<path fill="#FFFFFF" d="M351.1,432l1.2-5.8c0.1-0.5,0.2-0.9,0.2-1.1c0-0.4-0.1-0.7-0.3-0.9s-0.5-0.3-0.9-0.3
			c-0.5,0-0.9,0.2-1.4,0.5c-0.4,0.3-0.8,0.8-1.2,1.4c-0.3,0.6-0.6,1.4-0.8,2.3l-0.9,4h-1.4l2-9.3h1.2l-0.2,1.7h0.1
			c0.5-0.7,1-1.2,1.5-1.4c0.5-0.3,1-0.4,1.5-0.4c0.6,0,1.1,0.2,1.5,0.5s0.5,0.9,0.6,1.5h0.1c0.5-0.7,1-1.2,1.5-1.6s1.1-0.5,1.7-0.5
			c0.7,0,1.3,0.2,1.7,0.6c0.4,0.4,0.6,0.9,0.6,1.7c0,0.4-0.1,0.9-0.2,1.5l-1.2,5.7h-1.4l1.2-5.8c0.1-0.6,0.2-1,0.2-1.2
			c0-0.3-0.1-0.6-0.3-0.8s-0.5-0.3-0.9-0.3c-0.5,0-0.9,0.2-1.4,0.5c-0.4,0.3-0.8,0.8-1.2,1.4c-0.3,0.6-0.6,1.3-0.8,2.1l-0.9,4.2
			H351.1z"/>
		<path fill="#FFFFFF" d="M365.7,422.6c0.5,0,1,0.1,1.4,0.4s0.7,0.7,0.9,1.2h0.1l0.6-1.5h1.1l-2,9.3h-1.1l0.2-1.8h-0.1
			c-1,1.3-2.1,1.9-3.2,1.9c-0.8,0-1.4-0.3-1.8-0.8c-0.4-0.6-0.7-1.3-0.7-2.3c0-1.2,0.2-2.3,0.6-3.3c0.4-1,1-1.8,1.7-2.4
			S364.8,422.6,365.7,422.6z M364.1,431c0.5,0,1.1-0.3,1.6-0.8c0.5-0.5,1-1.2,1.3-2c0.3-0.8,0.5-1.7,0.5-2.5c0-0.6-0.2-1-0.5-1.4
			c-0.3-0.3-0.7-0.5-1.2-0.5c-0.6,0-1.1,0.2-1.6,0.7c-0.5,0.5-0.9,1.1-1.2,2s-0.4,1.7-0.4,2.6c0,0.6,0.1,1.1,0.4,1.4
			C363.2,430.8,363.6,431,364.1,431z"/>
		<path fill="#FFFFFF" d="M374.6,432.2c-0.5,0-1-0.1-1.4-0.4c-0.4-0.3-0.7-0.7-1-1.2h-0.1l0,0.3c0,0.1,0,0.3-0.1,0.6
			c0,0.3-0.4,1.8-1,4.7h-1.4l2.8-13.4h1.2l-0.2,1.8h0.1c1-1.3,2.1-1.9,3.1-1.9c0.8,0,1.4,0.3,1.8,0.8c0.4,0.5,0.7,1.3,0.7,2.3
			c0,1.2-0.2,2.3-0.6,3.3c-0.4,1-0.9,1.8-1.6,2.3C376.3,431.9,375.5,432.2,374.6,432.2z M376.2,423.8c-0.5,0-1.1,0.3-1.7,0.8
			c-0.6,0.5-1,1.2-1.3,2s-0.5,1.6-0.5,2.5c0,0.6,0.2,1.1,0.5,1.4c0.3,0.3,0.8,0.5,1.4,0.5c0.6,0,1.1-0.2,1.6-0.7
			c0.5-0.5,0.9-1.1,1.2-1.9c0.3-0.8,0.4-1.7,0.4-2.7C377.7,424.4,377.2,423.8,376.2,423.8z"/>
		<path fill="#FFFFFF" d="M385.9,432l1.2-5.8c0.1-0.5,0.2-0.9,0.2-1.1c0-0.4-0.1-0.7-0.3-0.9s-0.5-0.3-0.9-0.3
			c-0.5,0-0.9,0.2-1.4,0.5c-0.4,0.3-0.8,0.8-1.2,1.4c-0.3,0.6-0.6,1.4-0.8,2.3l-0.9,4h-1.4l2-9.3h1.2l-0.2,1.7h0.1
			c0.5-0.7,1-1.2,1.5-1.4c0.5-0.3,1-0.4,1.5-0.4c0.6,0,1.1,0.2,1.5,0.5s0.5,0.9,0.6,1.5h0.1c0.5-0.7,1-1.2,1.5-1.6s1.1-0.5,1.7-0.5
			c0.7,0,1.3,0.2,1.7,0.6c0.4,0.4,0.6,0.9,0.6,1.7c0,0.4-0.1,0.9-0.2,1.5l-1.2,5.7h-1.4l1.2-5.8c0.1-0.6,0.2-1,0.2-1.2
			c0-0.3-0.1-0.6-0.3-0.8s-0.5-0.3-0.9-0.3c-0.5,0-0.9,0.2-1.4,0.5c-0.4,0.3-0.8,0.8-1.2,1.4c-0.3,0.6-0.6,1.3-0.8,2.1l-0.9,4.2
			H385.9z"/>
	</g>
</g>
<g>
</g>
<g>
</g>
<g>
</g>
<g>
</g>
<g>
</g>
<g>
</g>
<g>
</g>
<g>
</g>
<g>
</g>
<g>
</g>
<g>
</g>
<g>
</g>
<g>
</g>
<g>
</g>
<g>
</g>
</svg>
