<?xml version="1.0" standalone="no"?>
<!DOCTYPE svg PUBLIC "-//W3C//DTD SVG 20010904//EN"
 "http://www.w3.org/TR/2001/REC-SVG-20010904/DTD/svg10.dtd">
<svg version="1.0" xmlns="http://www.w3.org/2000/svg"
 width="260.000000pt" height="260.000000pt" viewBox="0 0 260.000000 260.000000"
 preserveAspectRatio="xMidYMid meet">
<metadata>
Created by potrace 1.11, written by Peter Selinger 2001-2013
</metadata>
<g transform="translate(0.000000,260.000000) scale(0.100000,-0.100000)"
fill="#000000" stroke="none">
<path d="M655 2268 c-8 -24 -98 -383 -99 -397 -1 -11 95 -14 604 -14 333 0
613 -4 622 -8 28 -15 29 -40 2 -139 -13 -52 -27 -106 -30 -119 -12 -58 -48
-102 -98 -121 -31 -11 -541 -15 -570 -4 -28 11 -27 46 3 162 l29 112 -297 0
-298 0 -11 -37 c-7 -21 -30 -112 -53 -203 -22 -91 -74 -298 -115 -460 -41
-162 -76 -302 -78 -310 -2 -8 -18 -71 -36 -140 -17 -69 -33 -132 -35 -140 -2
-8 -10 -41 -18 -72 l-15 -58 256 0 c280 0 303 4 344 60 15 20 93 297 112 395
13 69 41 155 58 184 40 63 69 69 366 69 249 0 265 -1 284 -20 23 -23 27 3 -58
-333 -81 -315 -82 -324 -59 -342 15 -10 125 -13 577 -13 l558 0 0 75 0 75
-243 0 c-227 0 -245 1 -261 19 -15 16 -16 25 -6 62 7 24 13 51 15 59 2 8 21
87 43 174 60 236 50 320 -54 437 -24 27 -44 51 -44 54 0 23 24 54 46 59 94 24
182 92 223 175 13 24 50 150 82 280 65 257 68 294 30 370 -12 22 -36 51 -54
65 -75 58 -36 55 -911 56 -641 0 -807 -2 -811 -12z"/>
</g>
</svg>
